<svg width="135" height="113" viewBox="0 0 135 113" fill="none" xmlns="http://www.w3.org/2000/svg">
<path d="M67.5 113C104.779 113 135 96.3704 135 75.8565C135 55.3427 104.779 38.7129 67.5 38.7129C30.2208 38.7129 0 55.3427 0 75.8565C0 96.3704 30.2208 113 67.5 113Z" fill="#F5F5F5"/>
<path d="M5.97658 85.4121L46.9214 107.553C47.4446 107.801 48.0229 107.931 48.6094 107.931C49.1959 107.931 49.7742 107.801 50.2974 107.553L127.399 65.8556C128.333 65.3519 128.333 64.5303 127.399 64.0319L86.457 41.8884C85.9338 41.6401 85.3555 41.5107 84.769 41.5107C84.1825 41.5107 83.6042 41.6401 83.081 41.8884L5.97658 83.5858C5.04557 84.0894 5.04557 84.9085 5.97658 85.4121Z" fill="#E0E0E0"/>
<path opacity="0.1" d="M79.0683 56.6869C83.6007 56.6869 87.2748 54.7003 87.2748 52.2497C87.2748 49.7991 83.6007 47.8125 79.0683 47.8125C74.536 47.8125 70.8618 49.7991 70.8618 52.2497C70.8618 54.7003 74.536 56.6869 79.0683 56.6869Z" fill="black"/>
<path d="M8.71337 77.7728C8.1474 78.1889 8.20117 78.78 8.8973 79.1538L47.0208 99.7732C47.4508 99.9764 47.9258 100.082 48.4074 100.082C48.8891 100.082 49.364 99.9764 49.7941 99.7732L122.648 60.3712C123.353 59.9895 123.412 59.3878 122.812 58.9717C123.169 59.2263 123.464 59.5502 123.675 59.9212C123.886 60.2923 124.008 60.7017 124.035 61.1214V62.839C124.01 63.2901 123.871 63.7292 123.63 64.1204C123.389 64.5115 123.053 64.8436 122.648 65.0894L49.7997 104.489C49.3698 104.694 48.8942 104.801 48.4117 104.801C47.9292 104.801 47.4535 104.694 47.0236 104.489L8.88882 83.8746C8.48458 83.6285 8.14822 83.2963 7.90723 82.9052C7.66624 82.5141 7.52745 82.0751 7.5022 81.6242V79.9039C7.52861 79.488 7.65048 79.0823 7.8595 78.7145C8.06851 78.3468 8.35976 78.0255 8.71337 77.7728Z" fill="#111B20"/>
<path d="M8.88854 79.1539L47.012 99.7733C47.4421 99.9765 47.917 100.082 48.3987 100.082C48.8803 100.082 49.3552 99.9765 49.7853 99.7733L122.648 60.3713C123.415 59.9578 123.415 59.2846 122.648 58.8737L84.5243 38.2516C84.0948 38.0485 83.6203 37.9426 83.1391 37.9426C82.6579 37.9426 82.1834 38.0485 81.7539 38.2516L8.88854 77.6562C8.13297 78.0698 8.13014 78.743 8.88854 79.1539ZM75.8933 43.5847C76.547 43.2296 77.229 43.4337 77.8742 43.7915L112.54 62.5396C113.193 62.8921 113.196 63.4673 112.54 63.8251L55.8242 94.5012C55.4552 94.6757 55.0476 94.7666 54.6342 94.7666C54.2208 94.7666 53.8133 94.6757 53.4443 94.5012L18.793 75.7531C18.1336 75.3979 18.1336 74.8227 18.793 74.4702L75.8933 43.5847Z" fill="#455A64"/>
<path d="M122.815 58.9717C123.172 59.2263 123.466 59.5502 123.677 59.9212C123.888 60.2923 124.011 60.7017 124.037 61.1214V62.839C124.012 63.29 123.874 63.7291 123.633 64.1202C123.392 64.5113 123.055 64.8435 122.651 65.0894L49.7995 104.489C49.3717 104.703 48.8923 104.811 48.4072 104.801V100.094C48.8911 100.104 49.3695 99.9968 49.7967 99.7838L122.648 60.3712C123.355 59.9895 123.415 59.3878 122.815 58.9717Z" fill="#37474F"/>
<path d="M99.933 50.5877C99.4208 50.3226 99.4208 49.8588 99.933 49.5831C100.221 49.446 100.54 49.3745 100.863 49.3745C101.186 49.3745 101.504 49.446 101.792 49.5831C102.307 49.8482 102.307 50.3094 101.792 50.5877C101.504 50.7248 101.186 50.7963 100.863 50.7963C100.54 50.7963 100.221 50.7248 99.933 50.5877Z" fill="black"/>
<path d="M31.5611 88.9612C30.767 88.9761 29.982 88.8009 29.2803 88.4523C28.6379 88.1024 28.2842 87.6306 28.2842 87.127C28.2842 86.6234 28.6379 86.1462 29.2803 85.8017C30.5367 85.1231 32.5827 85.1231 33.8391 85.8017C34.4843 86.1515 34.8381 86.6234 34.8381 87.127C34.8381 87.6306 34.4843 88.1104 33.8391 88.4523C33.1383 88.8006 32.3543 88.9757 31.5611 88.9612ZM31.5611 85.6161C30.83 85.6027 30.1073 85.7641 29.4614 86.0853C28.9379 86.3689 28.6464 86.7373 28.6464 87.119C28.6464 87.5007 28.9294 87.8718 29.4614 88.1554C30.1119 88.4638 30.8307 88.6245 31.5597 88.6245C32.2888 88.6245 33.0076 88.4638 33.658 88.1554C34.1844 87.8718 34.473 87.5034 34.473 87.119C34.473 86.7347 34.19 86.3689 33.658 86.0853C33.0142 85.7604 32.2923 85.5953 31.5611 85.6055V85.6161Z" fill="#E6E6E6"/>
<path d="M100.858 53.9222L93.6845 50.0417C93.2543 49.8111 93.2345 49.4453 93.6364 49.2279C93.8717 49.1224 94.1301 49.0699 94.391 49.0745C94.6519 49.0791 94.908 49.1407 95.139 49.2544L102.315 53.135C102.743 53.3683 102.763 53.7314 102.361 53.9487C102.126 54.0549 101.867 54.1077 101.606 54.1031C101.345 54.0985 101.089 54.0366 100.858 53.9222Z" fill="black"/>
<path d="M75.8932 43.5848C76.5469 43.2296 77.2289 43.4337 77.8741 43.7915L112.54 62.5396C113.193 62.8921 113.196 63.4673 112.54 63.8252L55.824 94.5012C55.455 94.6757 55.0475 94.7666 54.6341 94.7666C54.2207 94.7666 53.8132 94.6757 53.4442 94.5012L18.7929 75.7531C18.1335 75.3979 18.1335 74.8227 18.7929 74.4702L75.8932 43.5848Z" fill="#2E764F"/>
<path d="M75.0224 23.8978L74.3032 24.2397L78.7679 32.4794L79.4871 32.1375L75.0224 23.8978Z" fill="#37474F"/>
<path d="M83.3141 23.237L78.9587 29.8269L79.6445 30.2245L83.9998 23.6346L83.3141 23.237Z" fill="#37474F"/>
<path d="M78.4543 22.4512V52.271C78.459 52.3278 78.4799 52.3823 78.5147 52.4289C78.5496 52.4755 78.5971 52.5125 78.6524 52.5361C78.8005 52.6054 78.9637 52.6415 79.1293 52.6415C79.2948 52.6415 79.458 52.6054 79.6061 52.5361C79.6618 52.513 79.7097 52.4761 79.7446 52.4294C79.7795 52.3827 79.8001 52.3279 79.8042 52.271V22.4512H78.4543Z" fill="#37474F"/>
<path d="M77.861 19.1251C78.3838 15.1484 75.3659 11.5277 71.1204 11.038C66.8749 10.5483 63.0094 13.3751 62.4866 17.3518C61.9638 21.3285 64.9817 24.9492 69.2272 25.4389C73.4727 25.9286 77.3382 23.1018 77.861 19.1251Z" fill="#2E764F"/>
<path opacity="0.15" d="M67.636 19.0847C65.4118 15.5196 66.0541 12.6171 66.3569 11.928C66.8493 10.8067 68.7849 10.987 70.1744 10.987C71.4793 10.9874 72.7629 11.2966 73.9061 11.8859C75.0493 12.4753 76.015 13.3256 76.7136 14.358C77.4122 15.3903 77.821 16.5713 77.902 17.7912C77.9831 19.0111 77.7338 20.2305 77.1772 21.336C76.6207 22.4415 75.775 23.3974 74.7186 24.115C73.6622 24.8325 72.4294 25.2884 71.1346 25.4404C69.8398 25.5923 68.5251 25.4354 67.3123 24.9842C66.0996 24.5329 65.0283 23.802 64.1978 22.8593C66.4927 23.4901 69.7952 22.5465 67.636 19.0847Z" fill="black"/>
<path d="M90.4329 24.868C93.9633 23.4983 95.6397 19.7072 94.1774 16.4003C92.7151 13.0935 88.6677 11.5232 85.1374 12.8929C81.607 14.2627 79.9306 18.0538 81.3929 21.3606C82.8552 24.6674 86.9026 26.2377 90.4329 24.868Z" fill="#2E764F"/>
<path opacity="0.15" d="M87.7843 12.3999C89.2361 12.3981 90.6513 12.8257 91.8282 13.6219C92.015 17.5819 88.4324 21.4413 89.4285 22.7401C90.4246 24.0389 92.9035 23.2411 93.7638 22.1384C93.1537 23.1212 92.2784 23.9364 91.2256 24.5021C90.1729 25.0679 88.9798 25.3643 87.766 25.3616C86.5523 25.3589 85.3608 25.0572 84.3109 24.4868C83.261 23.9164 82.3898 23.0973 81.7847 22.1118C81.1796 21.1263 80.8619 20.009 80.8635 18.8722C80.8651 17.7353 81.186 16.6189 81.7939 15.6349C82.4017 14.6509 83.2752 13.834 84.3267 13.2662C85.3782 12.6983 86.5706 12.3996 87.7843 12.3999Z" fill="black"/>
<path d="M79.1307 23.7817C86.1417 23.7817 91.8253 18.458 91.8253 11.8908C91.8253 5.32371 86.1417 0 79.1307 0C72.1196 0 66.436 5.32371 66.436 11.8908C66.436 18.458 72.1196 23.7817 79.1307 23.7817Z" fill="#2E764F"/>
<path opacity="0.1" d="M88.3501 3.72412C88.573 4.61297 88.6869 5.52272 88.6897 6.43574C88.6897 13.0041 85.1835 20.0256 75.814 20.0256C72.1833 20.0256 67.8904 17.8203 66.7783 14.6077C67.0622 15.7417 67.5228 16.8304 68.1451 17.8389C68.2329 17.9767 68.3206 18.1039 68.4281 18.2497V18.2683C68.8813 18.9341 69.4046 19.5556 69.9902 20.1237L70.0581 20.1926C70.1515 20.2828 70.2505 20.3729 70.3411 20.4577L70.4543 20.5584C70.5477 20.6406 70.6439 20.7201 70.7373 20.7996L70.8703 20.9083C70.9636 20.9852 71.0599 21.0594 71.1532 21.1336L71.2947 21.237L71.5947 21.4543L71.6796 21.51C71.889 21.6531 72.1012 21.7883 72.3191 21.9182L72.4833 22.0163C72.5738 22.0693 72.6672 22.117 72.7662 22.1674L72.987 22.2867L73.2558 22.4218L73.4963 22.5385L73.7652 22.6577L74.0227 22.7664L74.2887 22.8751L74.5717 22.9785C74.6566 23.0103 74.7415 23.0421 74.8264 23.0686L75.1971 23.1879L75.5282 23.2833C75.6555 23.3178 75.7828 23.3549 75.913 23.3867L76.162 23.4423L76.4846 23.5113L76.7506 23.5616L77.0676 23.6146L77.3506 23.6544L77.6732 23.6915L77.9562 23.7207L78.3014 23.7445L78.5589 23.7604H79.0145H79.1588C81.6326 23.7524 84.0499 23.0672 86.1134 21.7892C88.177 20.5112 89.7966 18.6961 90.7733 16.5672C91.7499 14.4382 92.0408 12.0883 91.6103 9.80653C91.1798 7.52473 90.0466 5.41057 88.3501 3.72412Z" fill="black"/>
<path d="M41.1146 20.2219C40.9393 20.1092 40.7349 20.0428 40.5227 20.0297C40.3106 20.0167 40.0986 20.0574 39.9091 20.1476C38.7772 20.6115 37.7867 22.2682 37.7131 23.8745C37.6679 24.8234 37.9565 25.5311 38.4348 25.8519L39.6799 26.6921C39.8544 26.8033 40.0576 26.8684 40.2683 26.8805C40.4789 26.8926 40.6892 26.8513 40.8769 26.761C42.0088 26.2998 42.9993 24.6405 43.0757 23.0342C43.1181 22.0932 42.8351 21.3882 42.3626 21.0648L41.1146 20.2219Z" fill="#2E764F"/>
<path opacity="0.3" d="M41.1146 20.2219C40.9393 20.1092 40.7349 20.0428 40.5227 20.0297C40.3106 20.0167 40.0986 20.0574 39.9091 20.1476C38.7772 20.6115 37.7867 22.2682 37.7131 23.8745C37.6679 24.8234 37.9565 25.5311 38.4348 25.8519L39.6799 26.6921C39.8544 26.8033 40.0576 26.8684 40.2683 26.8805C40.4789 26.8926 40.6892 26.8513 40.8769 26.761C42.0088 26.2998 42.9993 24.6405 43.0757 23.0342C43.1181 22.0932 42.8351 21.3882 42.3626 21.0648L41.1146 20.2219Z" fill="black"/>
<path d="M42.6399 16.0207C41.791 15.4428 40.6874 15.3394 39.4734 15.8325C37.3963 16.6727 35.5116 19.0397 34.4872 21.807C34.2806 22.369 34.3457 22.9362 34.64 23.1509C34.9853 23.4001 35.5795 23.7685 35.8738 23.9806C36.2474 24.2456 36.8303 23.8586 37.0906 23.1483C37.8094 21.1894 39.1394 19.5195 40.5996 18.9284C41.0835 18.7131 41.6303 18.6553 42.1532 18.7641C42.3406 19.0157 42.4918 19.2893 42.6032 19.5778C42.6417 19.6831 42.7126 19.7753 42.8069 19.8429L44.0492 20.6805C44.3152 20.8581 44.717 20.7044 45.0283 20.259C45.1867 20.0392 45.2938 19.7905 45.3426 19.5293C45.3914 19.268 45.3807 19 45.3113 18.7429C45.0491 17.9967 44.5567 17.34 43.8964 16.8556L42.6399 16.0207Z" fill="#2E764F"/>
<path opacity="0.3" d="M42.6399 16.0207C41.791 15.4428 40.6874 15.3394 39.4734 15.8325C37.3963 16.6727 35.5116 19.0397 34.4872 21.807C34.2806 22.369 34.3457 22.9362 34.64 23.1509C34.9853 23.4001 35.5795 23.7685 35.8738 23.9806C36.2474 24.2456 36.8303 23.8586 37.0906 23.1483C37.8094 21.1894 39.1394 19.5195 40.5996 18.9284C41.0835 18.7131 41.6303 18.6553 42.1532 18.7641C42.3406 19.0157 42.4918 19.2893 42.6032 19.5778C42.6417 19.6831 42.7126 19.7753 42.8069 19.8429L44.0492 20.6805C44.3152 20.8581 44.717 20.7044 45.0283 20.259C45.1867 20.0392 45.2938 19.7905 45.3426 19.5293C45.3914 19.268 45.3807 19 45.3113 18.7429C45.0491 17.9967 44.5567 17.34 43.8964 16.8556L42.6399 16.0207Z" fill="black"/>
<path d="M47.4479 14.4169C47.0137 13.4849 46.3317 12.6727 45.467 12.0578C45.2548 11.912 44.4143 11.3475 44.2078 11.2096C42.824 10.2766 40.5148 10.0327 38.5481 10.8226C35.0985 12.2248 32.8488 14.2685 30.7689 19.1483C30.517 19.7421 30.6132 20.3491 30.9302 20.5823L31.1877 20.7679C31.5471 21.0329 32.1046 21.3643 32.4215 21.5975C32.7809 21.8626 33.3327 21.4968 33.6157 20.8235C35.008 17.5208 37.6991 15.0133 40.2234 13.9902C41.5279 13.46 42.7278 13.46 43.738 13.8947C44.1703 14.3258 44.5232 14.8212 44.7822 15.3605C44.8243 15.4508 44.8906 15.5294 44.9747 15.5885C45.1558 15.7078 46.1349 16.3837 46.2085 16.4208C46.4773 16.6011 46.8763 16.4553 47.1876 16.01C47.5555 15.5116 47.6573 14.8278 47.4479 14.4169Z" fill="#2E764F"/>
<path opacity="0.3" d="M47.4479 14.4169C47.0137 13.4849 46.3317 12.6727 45.467 12.0578C45.2548 11.912 44.4143 11.3475 44.2078 11.2096C42.824 10.2766 40.5148 10.0327 38.5481 10.8226C35.0985 12.2248 32.8488 14.2685 30.7689 19.1483C30.517 19.7421 30.6132 20.3491 30.9302 20.5823L31.1877 20.7679C31.5471 21.0329 32.1046 21.3643 32.4215 21.5975C32.7809 21.8626 33.3327 21.4968 33.6157 20.8235C35.008 17.5208 37.6991 15.0133 40.2234 13.9902C41.5279 13.46 42.7278 13.46 43.738 13.8947C44.1703 14.3258 44.5232 14.8212 44.7822 15.3605C44.8243 15.4508 44.8906 15.5294 44.9747 15.5885C45.1558 15.7078 46.1349 16.3837 46.2085 16.4208C46.4773 16.6011 46.8763 16.4553 47.1876 16.01C47.5555 15.5116 47.6573 14.8278 47.4479 14.4169Z" fill="black"/>
<path d="M43.0756 23.0341C42.9992 24.6245 42.0172 26.2997 40.8768 26.761C39.7364 27.2222 38.8761 26.3051 38.9497 24.7094C39.0233 23.1137 40.0165 21.4437 41.1485 20.9825C42.2804 20.5213 43.1492 21.4384 43.0756 23.0341Z" fill="#2E764F"/>
<path d="M40.71 16.6646C38.6329 17.5075 36.7483 19.8719 35.7267 22.6418C35.5173 23.2011 35.5824 23.771 35.8767 23.9831C36.2502 24.2481 36.8332 23.8611 37.0935 23.1508C37.8123 21.1919 39.1423 19.522 40.6025 18.9309C42.0627 18.3398 43.2852 18.9733 43.8427 20.4126C44.0464 20.9428 44.618 20.8633 45.0312 20.2722C45.1896 20.0523 45.2967 19.8036 45.3455 19.5424C45.3942 19.2811 45.3836 19.0131 45.3142 18.756C44.519 16.7229 42.79 15.8217 40.71 16.6646Z" fill="#2E764F"/>
<path d="M40.0647 11.7263C37.8009 12.5745 36.2473 13.648 34.9286 15.1987C33.7355 16.6271 32.8023 18.2302 32.1667 19.9434C31.9318 20.5424 31.8073 21.1786 32.4327 21.5974C32.7921 21.8624 33.3439 21.4966 33.6269 20.8234C35.0192 17.5207 37.7103 15.0131 40.2345 13.99C42.7587 12.9668 44.9009 13.9158 46.03 16.1927C46.2621 16.6592 46.7997 16.5797 47.1988 16.0098C47.5497 15.5062 47.6459 14.8223 47.4421 14.4194C46.0612 11.6362 43.0021 10.6263 40.0647 11.7263Z" fill="#2E764F"/>
<path d="M115.941 4.89832L110.126 1.75465C109.846 1.62066 109.537 1.55078 109.223 1.55078C108.909 1.55078 108.6 1.62066 108.32 1.75465L107.584 2.15225C107.322 2.31125 107.103 2.52624 106.946 2.77963C106.789 3.03302 106.699 3.31761 106.682 3.6101V9.90541C106.699 10.199 106.789 10.4847 106.946 10.7393C107.103 10.994 107.322 11.2105 107.584 11.3712L113.4 14.5149C113.679 14.6489 113.988 14.7188 114.302 14.7188C114.616 14.7188 114.926 14.6489 115.205 14.5149L115.941 14.1173C116.203 13.9568 116.422 13.7408 116.579 13.4866C116.735 13.2324 116.826 12.9473 116.844 12.6541V6.36413C116.827 6.07056 116.736 5.78486 116.579 5.53019C116.422 5.27552 116.204 5.05905 115.941 4.89832Z" fill="#2E764F"/>
<path opacity="0.8" d="M115.941 4.89832L110.126 1.75465C109.846 1.62066 109.537 1.55078 109.223 1.55078C108.909 1.55078 108.6 1.62066 108.32 1.75465L107.584 2.15225C107.322 2.31125 107.103 2.52624 106.946 2.77963C106.789 3.03302 106.699 3.31761 106.682 3.6101V9.90541C106.699 10.199 106.789 10.4847 106.946 10.7393C107.103 10.994 107.322 11.2105 107.584 11.3712L113.4 14.5149C113.679 14.6489 113.988 14.7188 114.302 14.7188C114.616 14.7188 114.926 14.6489 115.205 14.5149L115.941 14.1173C116.203 13.9568 116.422 13.7408 116.579 13.4866C116.735 13.2324 116.826 12.9473 116.844 12.6541V6.36413C116.827 6.07056 116.736 5.78486 116.579 5.53019C116.422 5.27552 116.204 5.05905 115.941 4.89832Z" fill="white"/>
<path d="M113.4 6.26061L107.584 3.12754C107.086 2.86247 106.682 3.07717 106.682 3.61526V9.90526C106.699 10.1988 106.789 10.4845 106.946 10.7392C107.103 10.9939 107.322 11.2103 107.584 11.3711L113.4 14.5147C113.898 14.7798 114.302 14.5651 114.302 14.027V7.73702C114.287 7.44172 114.197 7.15406 114.04 6.89749C113.883 6.64092 113.664 6.4227 113.4 6.26061Z" fill="#2E764F"/>
<path opacity="0.7" d="M113.4 6.26061L107.584 3.12754C107.086 2.86247 106.682 3.07717 106.682 3.61526V9.90526C106.699 10.1988 106.789 10.4845 106.946 10.7392C107.103 10.9939 107.322 11.2103 107.584 11.3711L113.4 14.5147C113.898 14.7798 114.302 14.5651 114.302 14.027V7.73702C114.287 7.44172 114.197 7.15406 114.04 6.89749C113.883 6.64092 113.664 6.4227 113.4 6.26061Z" fill="white"/>
<path d="M116.844 12.6543C116.826 12.9474 116.735 13.2325 116.579 13.4867C116.422 13.7409 116.203 13.9569 115.941 14.1174L115.205 14.515C114.95 14.6349 114.671 14.703 114.387 14.7149C114.102 14.7268 113.818 14.6821 113.552 14.5839C113.98 14.735 114.302 14.5097 114.302 14.0273V7.73729C114.291 7.4435 114.201 7.15717 114.039 6.90499L116.586 5.5293C116.75 5.78172 116.841 6.0692 116.852 6.36425L116.844 12.6543Z" fill="#2E764F"/>
<path opacity="0.55" d="M116.844 12.6543C116.826 12.9474 116.735 13.2325 116.579 13.4867C116.422 13.7409 116.203 13.9569 115.941 14.1174L115.205 14.515C114.95 14.6349 114.671 14.703 114.387 14.7149C114.102 14.7268 113.818 14.6821 113.552 14.5839C113.98 14.735 114.302 14.5097 114.302 14.0273V7.73729C114.291 7.4435 114.201 7.15717 114.039 6.90499L116.586 5.5293C116.75 5.78172 116.841 6.0692 116.852 6.36425L116.844 12.6543Z" fill="white"/>
<path d="M111.761 10.5891C112.177 10.1518 112.373 9.44138 112.344 8.64619C112.538 8.5721 112.704 8.44683 112.823 8.2857C112.634 8.28482 112.447 8.24784 112.274 8.17702C112.38 8.14816 112.475 8.0922 112.549 8.01542C112.623 7.93863 112.673 7.84406 112.692 7.74231C112.49 7.77936 112.282 7.76657 112.087 7.7052C111.934 7.39709 111.692 7.13536 111.388 6.94977C110.771 6.61579 110.318 7.09025 110.457 7.91196C109.579 7.32967 108.893 6.52904 108.476 5.60059C108.224 6.00083 108.346 6.76952 108.759 7.35267C108.591 7.25073 108.445 7.12144 108.326 6.97097C108.335 7.27046 108.407 7.56531 108.539 7.83836C108.67 8.1114 108.859 8.35717 109.093 8.56137C108.934 8.52176 108.787 8.44828 108.663 8.34666C108.769 8.87499 109.088 9.34478 109.554 9.65874C109.152 9.83633 108.646 9.73826 108.139 9.39367C108.521 9.92878 109.021 10.3808 109.605 10.719C110.55 11.2306 111.277 11.0927 111.739 10.5918" fill="white"/>
<path d="M115.941 19.1588L110.126 16.0151C109.846 15.8812 109.537 15.8113 109.223 15.8113C108.909 15.8113 108.6 15.8812 108.32 16.0151L107.584 16.4101C107.322 16.5711 107.103 16.7877 106.947 17.0423C106.79 17.2969 106.699 17.5824 106.682 17.8759V24.1659C106.698 24.4593 106.788 24.745 106.945 24.9993C107.102 25.2537 107.321 25.4695 107.584 25.6291L113.4 28.7754C113.679 28.9094 113.988 28.9793 114.302 28.9793C114.616 28.9793 114.926 28.9094 115.205 28.7754L115.941 28.3778C116.204 28.2171 116.422 28.0006 116.579 27.7459C116.736 27.4913 116.827 27.2056 116.844 26.912V20.6246C116.827 20.3311 116.736 20.0454 116.579 19.7907C116.422 19.536 116.204 19.3196 115.941 19.1588Z" fill="#2E764F"/>
<path opacity="0.8" d="M115.941 19.1588L110.126 16.0151C109.846 15.8812 109.537 15.8113 109.223 15.8113C108.909 15.8113 108.6 15.8812 108.32 16.0151L107.584 16.4101C107.322 16.5711 107.103 16.7877 106.947 17.0423C106.79 17.2969 106.699 17.5824 106.682 17.8759V24.1659C106.698 24.4593 106.788 24.745 106.945 24.9993C107.102 25.2537 107.321 25.4695 107.584 25.6291L113.4 28.7754C113.679 28.9094 113.988 28.9793 114.302 28.9793C114.616 28.9793 114.926 28.9094 115.205 28.7754L115.941 28.3778C116.204 28.2171 116.422 28.0006 116.579 27.7459C116.736 27.4913 116.827 27.2056 116.844 26.912V20.6246C116.827 20.3311 116.736 20.0454 116.579 19.7907C116.422 19.536 116.204 19.3196 115.941 19.1588Z" fill="white"/>
<path d="M106.682 17.8759C106.682 17.3458 107.086 17.1178 107.584 17.3882L113.4 20.5319C113.662 20.6926 113.881 20.9091 114.038 21.1638C114.195 21.4184 114.285 21.7041 114.302 21.9977V28.2877C114.302 28.8178 113.898 29.0458 113.4 28.7754L107.584 25.6291C107.321 25.4696 107.102 25.2537 106.945 24.9994C106.788 24.745 106.698 24.4593 106.682 24.1659V17.8759Z" fill="#2E764F"/>
<path opacity="0.7" d="M106.682 17.8759C106.682 17.3458 107.086 17.1178 107.584 17.3882L113.4 20.5319C113.662 20.6926 113.881 20.9091 114.038 21.1638C114.195 21.4184 114.285 21.7041 114.302 21.9977V28.2877C114.302 28.8178 113.898 29.0458 113.4 28.7754L107.584 25.6291C107.321 25.4696 107.102 25.2537 106.945 24.9994C106.788 24.745 106.698 24.4593 106.682 24.1659V17.8759Z" fill="white"/>
<path d="M116.844 26.9119C116.827 27.2054 116.736 27.4911 116.579 27.7458C116.422 28.0005 116.204 28.2169 115.941 28.3777L115.205 28.7753C114.95 28.8952 114.671 28.9633 114.387 28.9752C114.102 28.987 113.818 28.9424 113.552 28.8442C113.98 28.9926 114.302 28.77 114.302 28.2875V21.9975C114.291 21.7029 114.201 21.4157 114.039 21.1626L116.586 19.7896C116.75 20.042 116.841 20.3295 116.852 20.6245L116.844 26.9119Z" fill="#2E764F"/>
<path opacity="0.55" d="M116.844 26.9119C116.827 27.2054 116.736 27.4911 116.579 27.7458C116.422 28.0005 116.204 28.2169 115.941 28.3777L115.205 28.7753C114.95 28.8952 114.671 28.9633 114.387 28.9752C114.102 28.987 113.818 28.9424 113.552 28.8442C113.98 28.9926 114.302 28.77 114.302 28.2875V21.9975C114.291 21.7029 114.201 21.4157 114.039 21.1626L116.586 19.7896C116.75 20.042 116.841 20.3295 116.852 20.6245L116.844 26.9119Z" fill="white"/>
<path d="M109.885 25.6396L110.856 26.1697V23.1294L111.532 23.4952L111.603 22.5198L110.856 22.1142V21.5364C110.856 21.2952 110.893 21.221 111.079 21.3217L111.603 21.6053V20.545L110.932 20.1792C110.211 19.7896 109.885 20.0123 109.885 20.7703V21.5814L109.379 21.3164V22.3448L109.885 22.6099V25.6396Z" fill="white"/>
<path d="M115.941 33.4192L110.126 30.2729C109.845 30.141 109.536 30.0723 109.223 30.0723C108.909 30.0723 108.6 30.141 108.32 30.2729L107.584 30.6705C107.322 30.8312 107.103 31.0477 106.946 31.3024C106.789 31.5571 106.699 31.8427 106.682 32.1363V38.4263C106.698 38.7197 106.788 39.0054 106.945 39.2598C107.102 39.5141 107.321 39.73 107.584 39.8895L113.4 43.0358C113.68 43.1677 113.989 43.2365 114.302 43.2365C114.616 43.2365 114.925 43.1677 115.205 43.0358L115.941 42.6382C116.204 42.4775 116.422 42.261 116.579 42.0063C116.736 41.7517 116.827 41.466 116.844 41.1724V34.8877C116.827 34.5937 116.737 34.3074 116.58 34.0523C116.423 33.7971 116.204 33.5802 115.941 33.4192Z" fill="#2E764F"/>
<path opacity="0.8" d="M115.941 33.4192L110.126 30.2729C109.845 30.141 109.536 30.0723 109.223 30.0723C108.909 30.0723 108.6 30.141 108.32 30.2729L107.584 30.6705C107.322 30.8312 107.103 31.0477 106.946 31.3024C106.789 31.5571 106.699 31.8427 106.682 32.1363V38.4263C106.698 38.7197 106.788 39.0054 106.945 39.2598C107.102 39.5141 107.321 39.73 107.584 39.8895L113.4 43.0358C113.68 43.1677 113.989 43.2365 114.302 43.2365C114.616 43.2365 114.925 43.1677 115.205 43.0358L115.941 42.6382C116.204 42.4775 116.422 42.261 116.579 42.0063C116.736 41.7517 116.827 41.466 116.844 41.1724V34.8877C116.827 34.5937 116.737 34.3074 116.58 34.0523C116.423 33.7971 116.204 33.5802 115.941 33.4192Z" fill="white"/>
<path d="M106.682 32.1364C106.682 31.6063 107.086 31.3783 107.584 31.6487L113.4 34.7924C113.662 34.9531 113.881 35.1696 114.038 35.4243C114.195 35.6789 114.285 35.9646 114.302 36.2582V42.5482C114.302 43.0783 113.898 43.3036 113.4 43.0359L107.584 39.8896C107.321 39.7301 107.102 39.5142 106.945 39.2599C106.788 39.0055 106.698 38.7198 106.682 38.4264V32.1364Z" fill="#2E764F"/>
<path opacity="0.7" d="M106.682 32.1364C106.682 31.6063 107.086 31.3783 107.584 31.6487L113.4 34.7924C113.662 34.9531 113.881 35.1696 114.038 35.4243C114.195 35.6789 114.285 35.9646 114.302 36.2582V42.5482C114.302 43.0783 113.898 43.3036 113.4 43.0359L107.584 39.8896C107.321 39.7301 107.102 39.5142 106.945 39.2599C106.788 39.0055 106.698 38.7198 106.682 38.4264V32.1364Z" fill="white"/>
<path d="M116.844 41.1726C116.827 41.4662 116.736 41.7519 116.579 42.0065C116.422 42.2612 116.204 42.4777 115.941 42.6384L115.205 43.036C114.95 43.1561 114.671 43.2242 114.386 43.2356C114.101 43.247 113.817 43.2016 113.552 43.1023C113.98 43.2534 114.302 43.0281 114.302 42.5483V36.2583C114.291 35.9637 114.201 35.6765 114.039 35.4233L116.586 34.0503C116.749 34.3019 116.841 34.5885 116.852 34.8826L116.844 41.1726Z" fill="#2E764F"/>
<path opacity="0.55" d="M116.844 41.1726C116.827 41.4662 116.736 41.7519 116.579 42.0065C116.422 42.2612 116.204 42.4777 115.941 42.6384L115.205 43.036C114.95 43.1561 114.671 43.2242 114.386 43.2356C114.101 43.247 113.817 43.2016 113.552 43.1023C113.98 43.2534 114.302 43.0281 114.302 42.5483V36.2583C114.291 35.9637 114.201 35.6765 114.039 35.4233L116.586 34.0503C116.749 34.3019 116.841 34.5885 116.852 34.8826L116.844 41.1726Z" fill="white"/>
<path d="M110.48 35.0603C111.077 35.381 111.147 35.4234 111.382 35.5639C111.534 35.6527 111.673 35.7596 111.795 35.882C111.898 35.9854 111.984 36.1024 112.05 36.2292C112.125 36.3588 112.181 36.4969 112.217 36.6401C112.266 36.8232 112.292 37.0108 112.296 37.1994C112.296 37.4963 112.296 37.5864 112.296 38.3286C112.296 39.0707 112.296 39.1609 112.296 39.4471C112.297 39.6091 112.27 39.7701 112.217 39.9243C112.189 40.0151 112.13 40.095 112.05 40.1522C111.979 40.2067 111.887 40.2324 111.795 40.2238C111.649 40.2092 111.508 40.1649 111.382 40.0939C111.147 39.9799 111.077 39.9455 110.48 39.6247C109.882 39.304 109.815 39.2616 109.58 39.1211C109.426 39.0332 109.287 38.9252 109.166 38.8004C109.064 38.6964 108.977 38.5795 108.909 38.4531C108.836 38.3237 108.78 38.1867 108.742 38.0449C108.697 37.8614 108.671 37.674 108.666 37.4857C108.666 37.1861 108.666 37.096 108.666 36.3538C108.666 35.6116 108.666 35.5242 108.666 35.2352C108.666 35.0745 108.692 34.9146 108.742 34.7608C108.771 34.6698 108.83 34.5894 108.909 34.5302C108.982 34.4767 109.074 34.452 109.166 34.4613C109.313 34.4746 109.454 34.5181 109.58 34.5885C109.815 34.7025 109.885 34.7369 110.48 35.0603ZM110.48 34.5593C109.877 34.2306 109.8 34.1935 109.563 34.0769C109.396 33.9872 109.211 33.932 109.019 33.9152C108.879 33.9034 108.738 33.9412 108.626 34.0212C108.503 34.1119 108.413 34.236 108.368 34.3764C108.3 34.577 108.266 34.7862 108.267 34.9967C108.267 35.2883 108.252 35.381 108.252 36.1365C108.252 36.8919 108.252 36.9873 108.267 37.2922C108.271 37.5388 108.306 37.7842 108.368 38.0237C108.426 38.2433 108.512 38.4553 108.626 38.6546C108.732 38.8463 108.865 39.0245 109.019 39.1847C109.179 39.3477 109.362 39.4895 109.563 39.6062C109.8 39.7493 109.877 39.7917 110.48 40.1204C111.082 40.4491 111.162 40.4862 111.399 40.6002C111.565 40.69 111.749 40.746 111.94 40.7645C112.082 40.7763 112.223 40.7375 112.336 40.6558C112.459 40.5656 112.549 40.4414 112.593 40.3006C112.66 40.1007 112.695 39.8925 112.695 39.683C112.695 39.3915 112.709 39.2987 112.709 38.5406C112.709 37.7825 112.709 37.6898 112.695 37.3876C112.689 37.141 112.655 36.8958 112.593 36.656C112.536 36.4356 112.45 36.2227 112.336 36.0225C112.12 35.6312 111.797 35.3009 111.399 35.0656C111.162 34.9251 111.085 34.8801 110.48 34.554" fill="white"/>
<path d="M110.479 35.9109C109.848 35.5689 109.347 35.9321 109.347 36.722C109.347 37.5119 109.86 38.429 110.479 38.7709C111.099 39.1129 111.611 38.7497 111.611 37.9598C111.611 37.1699 111.099 36.2528 110.479 35.9109ZM110.479 38.27C110.254 38.1183 110.07 37.9195 109.941 37.6894C109.813 37.4594 109.743 37.2043 109.738 36.9446C109.738 36.4331 110.069 36.1971 110.479 36.4145C110.705 36.5655 110.891 36.764 111.02 36.9942C111.149 37.2244 111.219 37.4798 111.224 37.7398C111.224 38.2541 110.89 38.4873 110.479 38.27Z" fill="white"/>
<path d="M111.447 36.4093C111.448 36.5035 111.473 36.596 111.52 36.6794C111.567 36.7628 111.634 36.8346 111.716 36.8891C111.863 36.9686 111.982 36.8891 111.982 36.6982C111.981 36.6048 111.956 36.5129 111.91 36.4301C111.863 36.3472 111.797 36.2757 111.716 36.2211C111.566 36.1416 111.447 36.2211 111.447 36.4093Z" fill="white"/>
<path opacity="0.1" d="M77.2375 61.4925L65.4428 55.1151C65.224 55.0093 64.9815 54.9541 64.7353 54.9541C64.4892 54.9541 64.2466 55.0093 64.0279 55.1151L25.8251 75.7716C25.4346 75.9836 25.4346 76.3229 25.8251 76.535L37.6199 82.9125C37.839 83.017 38.0814 83.0714 38.3273 83.0714C38.5732 83.0714 38.8156 83.017 39.0348 82.9125L43.1295 80.7071C43.3588 82.332 44.6209 83.925 46.9187 85.1682C52.0124 87.9275 60.3066 87.9275 65.4116 85.1682C70.5167 82.4088 70.5195 77.9266 65.4116 75.1646C63.1138 73.9214 60.1736 73.2402 57.1655 73.1156L77.2573 62.248C77.628 62.0439 77.628 61.7019 77.2375 61.4925Z" fill="black"/>
<path d="M55.1959 62.1684C55.0537 62.168 54.914 62.1323 54.7912 62.065L46.0754 57.3522C45.607 57.0964 45.2181 56.7306 44.9471 56.2907C44.6761 55.8509 44.5324 55.3525 44.5303 54.8447V45.4163C44.5303 45.2152 44.6155 45.0224 44.7673 44.8802C44.9191 44.7381 45.125 44.6582 45.3396 44.6582C45.5543 44.6582 45.7601 44.7381 45.9119 44.8802C46.0637 45.0224 46.1489 45.2152 46.1489 45.4163V54.8447C46.1492 55.0868 46.2173 55.3247 46.3464 55.5344C46.4755 55.7442 46.6611 55.9186 46.8847 56.0401L55.6006 60.753C55.7553 60.8362 55.8763 60.965 55.9448 61.1194C56.0133 61.2738 56.0254 61.445 55.9793 61.6064C55.9331 61.7679 55.8313 61.9105 55.6896 62.0122C55.5479 62.1138 55.3744 62.1687 55.1959 62.1684Z" fill="#2E764F"/>
<path d="M37.4017 71.5786C37.2595 71.5782 37.1199 71.5425 36.9971 71.4752L28.2812 66.7623C27.8128 66.5066 27.4239 66.1407 27.1529 65.7009C26.8819 65.2611 26.7382 64.7626 26.7361 64.2548V54.8264C26.7361 54.6254 26.8214 54.4326 26.9731 54.2904C27.1249 54.1482 27.3308 54.0684 27.5454 54.0684C27.7601 54.0684 27.9659 54.1482 28.1177 54.2904C28.2695 54.4326 28.3547 54.6254 28.3547 54.8264V64.2548C28.355 64.497 28.4231 64.7348 28.5522 64.9446C28.6813 65.1544 28.8669 65.3287 29.0905 65.4503L37.8064 70.1631C37.9611 70.2464 38.0822 70.3752 38.1506 70.5296C38.2191 70.6839 38.2312 70.8551 38.1851 71.0166C38.1389 71.178 38.0371 71.3207 37.8954 71.4223C37.7537 71.524 37.5802 71.5789 37.4017 71.5786Z" fill="#2E764F"/>
<path d="M72.3784 52.687C72.2371 52.6863 72.0985 52.6506 71.9766 52.5836L63.2578 47.8761C62.79 47.62 62.4016 47.254 62.1312 46.8142C61.8607 46.3744 61.7174 45.8761 61.7156 45.3686V35.9481C61.7278 35.7552 61.8182 35.5739 61.9684 35.4413C62.1186 35.3087 62.3171 35.2349 62.5235 35.2349C62.7299 35.2349 62.9284 35.3087 63.0786 35.4413C63.2288 35.5739 63.3192 35.7552 63.3314 35.9481V45.3765C63.3361 45.6153 63.4066 45.8488 63.536 46.0545C63.6654 46.2603 63.8493 46.4312 64.07 46.5508L72.7859 51.2636C72.9406 51.3469 73.0617 51.4757 73.1301 51.63C73.1986 51.7844 73.2107 51.9556 73.1646 52.1171C73.1184 52.2785 73.0166 52.4212 72.8749 52.5228C72.7332 52.6245 72.5597 52.6794 72.3812 52.6791L72.3784 52.687Z" fill="#2E764F"/>
<path d="M38.9103 70.6375V81.4283C38.9017 81.5052 38.8707 81.5785 38.8209 81.6402C38.771 81.7018 38.704 81.7496 38.6273 81.7781C38.426 81.8736 38.2035 81.9234 37.9778 81.9234C37.7522 81.9234 37.5297 81.8736 37.3284 81.7781C37.2516 81.7496 37.1847 81.7018 37.1348 81.6402C37.0849 81.5785 37.054 81.5052 37.0454 81.4283V70.6375H38.9103Z" fill="#2E764F"/>
<path d="M31.2216 66.5369V77.325C31.2125 77.4022 31.1815 77.4756 31.1317 77.5377C31.0819 77.5997 31.0152 77.648 30.9386 77.6776C30.7373 77.7731 30.5148 77.8228 30.2891 77.8228C30.0635 77.8228 29.841 77.7731 29.6397 77.6776C29.5654 77.6466 29.5012 77.5976 29.454 77.5356C29.4067 77.4736 29.378 77.4009 29.3708 77.325V66.5369H31.2216Z" fill="#2E764F"/>
<path d="M73.8587 51.7383V62.5264C73.851 62.6022 73.822 62.6747 73.7748 62.7366C73.7276 62.7985 73.6638 62.8476 73.5898 62.879C73.388 62.9745 73.1651 63.0243 72.939 63.0243C72.7129 63.0243 72.4899 62.9745 72.2881 62.879C72.2115 62.8494 72.1448 62.8011 72.095 62.7391C72.0452 62.677 72.0141 62.6036 72.0051 62.5264V51.7383H73.8587Z" fill="#2E764F"/>
<path d="M66.1699 47.635V58.4258C66.1626 58.5013 66.1338 58.5736 66.0865 58.6351C66.0392 58.6967 65.9752 58.7452 65.9011 58.7757C65.6993 58.8712 65.4764 58.921 65.2503 58.921C65.0241 58.921 64.8012 58.8712 64.5994 58.7757C64.5226 58.7471 64.4557 58.6994 64.4058 58.6377C64.3559 58.5761 64.325 58.5028 64.3164 58.4258V47.635H66.1699Z" fill="#2E764F"/>
<g opacity="0.65">
<path d="M55.1959 62.1684C55.0537 62.168 54.914 62.1323 54.7912 62.065L46.0754 57.3522C45.607 57.0964 45.2181 56.7306 44.9471 56.2907C44.6761 55.8509 44.5324 55.3525 44.5303 54.8447V45.4163C44.5303 45.2152 44.6155 45.0224 44.7673 44.8802C44.9191 44.7381 45.125 44.6582 45.3396 44.6582C45.5543 44.6582 45.7601 44.7381 45.9119 44.8802C46.0637 45.0224 46.1489 45.2152 46.1489 45.4163V54.8447C46.1492 55.0868 46.2173 55.3247 46.3464 55.5344C46.4755 55.7442 46.6611 55.9186 46.8847 56.0401L55.6006 60.753C55.7553 60.8362 55.8763 60.965 55.9448 61.1194C56.0133 61.2738 56.0254 61.445 55.9793 61.6064C55.9331 61.7679 55.8313 61.9105 55.6896 62.0122C55.5479 62.1138 55.3744 62.1687 55.1959 62.1684Z" fill="black"/>
<path d="M37.4017 71.5783C37.2595 71.5779 37.1199 71.5422 36.9971 71.475L28.2812 66.7621C27.8128 66.5064 27.4239 66.1405 27.1529 65.7007C26.8819 65.2609 26.7382 64.7624 26.7361 64.2546V54.8262C26.7361 54.6251 26.8214 54.4323 26.9731 54.2902C27.1249 54.148 27.3308 54.0681 27.5454 54.0681C27.7601 54.0681 27.9659 54.148 28.1177 54.2902C28.2695 54.4323 28.3547 54.6251 28.3547 54.8262V64.2546C28.355 64.4967 28.4231 64.7346 28.5522 64.9443C28.6813 65.1541 28.8669 65.3285 29.0905 65.45L37.8064 70.1629C37.9611 70.2461 38.0822 70.375 38.1506 70.5293C38.2191 70.6837 38.2312 70.8549 38.1851 71.0163C38.1389 71.1778 38.0371 71.3204 37.8954 71.4221C37.7537 71.5237 37.5802 71.5787 37.4017 71.5783Z" fill="black"/>
<path d="M72.3784 52.687C72.2371 52.6863 72.0985 52.6506 71.9766 52.5836L63.2578 47.8761C62.79 47.62 62.4016 47.254 62.1312 46.8142C61.8607 46.3744 61.7174 45.8761 61.7156 45.3686V35.9481C61.7278 35.7552 61.8182 35.5739 61.9684 35.4413C62.1186 35.3087 62.3171 35.2349 62.5235 35.2349C62.7299 35.2349 62.9284 35.3087 63.0786 35.4413C63.2288 35.5739 63.3192 35.7552 63.3314 35.9481V45.3765C63.3361 45.6153 63.4066 45.8488 63.536 46.0545C63.6654 46.2603 63.8493 46.4312 64.07 46.5508L72.7859 51.2636C72.9406 51.3469 73.0617 51.4757 73.1301 51.63C73.1986 51.7844 73.2107 51.9556 73.1646 52.1171C73.1184 52.2785 73.0166 52.4212 72.8749 52.5228C72.7332 52.6245 72.5597 52.6794 72.3812 52.6791L72.3784 52.687Z" fill="black"/>
<path d="M38.9103 70.6372V81.428C38.9017 81.505 38.8707 81.5782 38.8209 81.6399C38.771 81.7016 38.704 81.7493 38.6273 81.7779C38.426 81.8734 38.2035 81.9232 37.9778 81.9232C37.7522 81.9232 37.5297 81.8734 37.3284 81.7779C37.2516 81.7493 37.1847 81.7016 37.1348 81.6399C37.0849 81.5782 37.054 81.505 37.0454 81.428V70.6372H38.9103Z" fill="black"/>
<path d="M31.2216 66.5366V77.3248C31.2125 77.4019 31.1815 77.4754 31.1317 77.5374C31.0819 77.5995 31.0152 77.6478 30.9386 77.6773C30.7373 77.7728 30.5148 77.8226 30.2891 77.8226C30.0635 77.8226 29.841 77.7728 29.6397 77.6773C29.5654 77.6464 29.5012 77.5974 29.454 77.5354C29.4067 77.4734 29.378 77.4007 29.3708 77.3248V66.5366H31.2216Z" fill="black"/>
<path d="M73.8587 51.7383V62.5264C73.851 62.6022 73.822 62.6747 73.7748 62.7366C73.7276 62.7985 73.6638 62.8476 73.5898 62.879C73.388 62.9745 73.1651 63.0243 72.939 63.0243C72.7129 63.0243 72.4899 62.9745 72.2881 62.879C72.2115 62.8494 72.1448 62.8011 72.095 62.7391C72.0452 62.677 72.0141 62.6036 72.0051 62.5264V51.7383H73.8587Z" fill="black"/>
<path d="M66.1699 47.6348V58.4256C66.1626 58.5011 66.1338 58.5734 66.0865 58.6349C66.0392 58.6964 65.9752 58.745 65.9011 58.7755C65.6993 58.871 65.4764 58.9207 65.2503 58.9207C65.0241 58.9207 64.8012 58.871 64.5994 58.7755C64.5226 58.7469 64.4557 58.6992 64.4058 58.6375C64.3559 58.5758 64.325 58.5025 64.3164 58.4256V47.6348H66.1699Z" fill="black"/>
</g>
<path d="M24.9336 56.9653L24.7723 56.8778C24.6364 56.7953 24.5233 56.6838 24.4422 56.5526C24.361 56.4213 24.3142 56.2739 24.3054 56.1224V54.7679C24.3144 54.6161 24.3613 54.4684 24.4424 54.3367C24.5235 54.2051 24.6365 54.0931 24.7723 54.0098L63.193 33.226C63.338 33.1581 63.4978 33.1228 63.6599 33.1228C63.822 33.1228 63.9818 33.1581 64.1268 33.226L64.2881 33.3135C64.4239 33.3968 64.5369 33.5087 64.618 33.6404C64.6991 33.7721 64.7461 33.9198 64.755 34.0716V35.4314C64.7461 35.5832 64.6991 35.7309 64.618 35.8625C64.5369 35.9942 64.4239 36.1062 64.2881 36.1895L25.8675 56.9653C25.723 57.0346 25.5629 57.0708 25.4006 57.0708C25.2382 57.0708 25.0782 57.0346 24.9336 56.9653Z" fill="#2E764F"/>
<path opacity="0.5" d="M64.2882 33.8277L25.8676 54.5956C25.7318 54.6789 25.6187 54.7908 25.5376 54.9225C25.4565 55.0542 25.4096 55.2019 25.4006 55.3537V56.7135C25.4006 56.9918 25.61 57.1058 25.8676 56.9785L64.2882 36.2027C64.424 36.1195 64.537 36.0075 64.6181 35.8758C64.6992 35.7441 64.7461 35.5964 64.7551 35.4446V34.0848C64.7551 33.7933 64.5457 33.6793 64.2882 33.8277Z" fill="black"/>
<path opacity="0.4" d="M64.2882 33.3135L64.1269 33.226C63.9819 33.1581 63.8221 33.1228 63.66 33.1228C63.4979 33.1228 63.338 33.1581 63.193 33.226L24.7724 54.0045C24.6376 54.0855 24.5274 54.1978 24.4526 54.3305L25.545 54.9216C25.6264 54.7901 25.7399 54.6784 25.876 54.5956L64.2882 33.8277C64.5457 33.6872 64.7551 33.8012 64.7551 34.0795C64.7475 33.9264 64.7011 33.7771 64.62 33.6439C64.5388 33.5108 64.4251 33.3975 64.2882 33.3135Z" fill="black"/>
<path opacity="0.6" d="M25.4006 55.3564C25.407 55.204 25.4536 55.0556 25.5365 54.9243L24.4526 54.3306C24.4171 54.3869 24.3877 54.4464 24.3649 54.5082C24.3323 54.5932 24.3151 54.6828 24.314 54.7732V56.133C24.324 56.2846 24.3714 56.4319 24.4524 56.5634C24.5334 56.6949 24.6459 56.8071 24.7809 56.8911L24.8431 56.9256L24.9422 56.9759L25.0158 57.0104H25.0356L25.1007 57.0316H25.1403L25.2054 57.0448H25.2535H25.3186H25.4827H25.5591H25.5761C25.6416 57.0358 25.7061 57.0207 25.7685 56.9998H25.7006C25.6762 57.0026 25.6514 57.0026 25.627 56.9998H25.6044C25.5884 56.9969 25.5731 56.9915 25.5591 56.9839H25.5421L25.5025 56.9547C25.4911 56.9394 25.4807 56.9235 25.4714 56.907V56.8937C25.4618 56.8705 25.4542 56.8466 25.4487 56.8222C25.4456 56.7904 25.4456 56.7585 25.4487 56.7268L25.4006 55.3564Z" fill="black"/>
<path d="M24.9336 61.1295L24.7723 61.0421C24.6365 60.9588 24.5235 60.8468 24.4424 60.7151C24.3613 60.5835 24.3144 60.4358 24.3054 60.284V58.9242C24.3142 58.7727 24.361 58.6253 24.4422 58.494C24.5233 58.3627 24.6364 58.2513 24.7723 58.1687L63.193 37.3823C63.3375 37.313 63.4975 37.2769 63.6599 37.2769C63.8223 37.2769 63.9823 37.313 64.1268 37.3823L64.2881 37.4698C64.4239 37.5531 64.5369 37.665 64.618 37.7967C64.6991 37.9284 64.7461 38.0761 64.755 38.2279V39.585C64.7467 39.737 64.7001 39.8849 64.6189 40.0167C64.5378 40.1484 64.4244 40.2603 64.2881 40.3431L25.8675 61.1295C25.723 61.1989 25.5629 61.235 25.4006 61.235C25.2382 61.235 25.0782 61.1989 24.9336 61.1295Z" fill="#2E764F"/>
<path opacity="0.5" d="M64.2882 37.976L25.8676 58.7439C25.7318 58.8271 25.6187 58.9391 25.5376 59.0708C25.4565 59.2025 25.4096 59.3502 25.4006 59.5019V60.8644C25.4006 61.1427 25.61 61.2567 25.8676 61.1295L64.2882 40.3536C64.424 40.2704 64.537 40.1584 64.6181 40.0267C64.6992 39.895 64.7461 39.7473 64.7551 39.5955V38.2278C64.7551 37.9495 64.5457 37.8355 64.2882 37.976Z" fill="black"/>
<path opacity="0.4" d="M64.2882 37.4698L64.1269 37.3823C63.9819 37.3144 63.8221 37.2791 63.66 37.2791C63.4979 37.2791 63.338 37.3144 63.193 37.3823L24.7724 58.1608C24.6386 58.2396 24.5286 58.349 24.4526 58.4788L25.545 59.0699C25.624 58.9393 25.7345 58.8277 25.8676 58.7439L64.2882 37.9681C64.5457 37.8276 64.7551 37.9416 64.7551 38.2199C64.7448 38.0695 64.6973 37.9234 64.6163 37.7932C64.5352 37.663 64.4229 37.5522 64.2882 37.4698Z" fill="black"/>
<path opacity="0.6" d="M25.4006 59.5099C25.407 59.3575 25.4536 59.2091 25.5365 59.0778L24.4526 58.4788C24.4166 58.5348 24.3872 58.5943 24.3649 58.6564C24.332 58.7414 24.3147 58.831 24.314 58.9214V60.2786C24.3203 60.4345 24.3701 60.5862 24.4583 60.7186C24.5344 60.8491 24.6456 60.9588 24.7809 61.0366L24.8431 61.0711L24.9422 61.1241L25.0158 61.1559H25.0356L25.1007 61.1771L25.1403 61.1904H25.2054C25.2214 61.1917 25.2375 61.1917 25.2535 61.1904H25.3186H25.4827H25.5591H25.5761C25.6417 61.1804 25.7062 61.1645 25.7685 61.1427C25.7465 61.1497 25.7237 61.1541 25.7006 61.1559C25.6761 61.1587 25.6514 61.1587 25.627 61.1559H25.6044L25.5591 61.14L25.5421 61.1268C25.5271 61.1194 25.5137 61.1095 25.5025 61.0976V61.0843C25.4899 61.0698 25.4794 61.0538 25.4714 61.0366C25.4618 61.0134 25.4542 60.9895 25.4487 60.9651C25.4457 60.9333 25.4457 60.9014 25.4487 60.8696L25.4006 59.5099Z" fill="black"/>
<path d="M24.9336 65.2752L24.7723 65.1904C24.6365 65.1071 24.5235 64.9951 24.4424 64.8634C24.3613 64.7318 24.3144 64.5841 24.3054 64.4323V63.0725C24.3144 62.9207 24.3613 62.773 24.4424 62.6413C24.5235 62.5096 24.6365 62.3977 24.7723 62.3144L63.193 41.5386C63.3375 41.4693 63.4975 41.4331 63.6599 41.4331C63.8223 41.4331 63.9823 41.4693 64.1268 41.5386L64.2881 41.6234C64.4239 41.7067 64.5369 41.8186 64.618 41.9503C64.6991 42.082 64.7461 42.2297 64.755 42.3815V43.7413C64.7461 43.8931 64.6991 44.0408 64.618 44.1724C64.5369 44.3041 64.4239 44.4161 64.2881 44.4994L25.8675 65.2752C25.723 65.3445 25.5629 65.3807 25.4006 65.3807C25.2382 65.3807 25.0782 65.3445 24.9336 65.2752Z" fill="#2E764F"/>
<path opacity="0.5" d="M64.2882 42.1296L25.8676 62.9054C25.7318 62.9886 25.6187 63.1006 25.5376 63.2323C25.4565 63.364 25.4096 63.5117 25.4006 63.6635V65.0233C25.4006 65.3016 25.61 65.4156 25.8676 65.2751L64.2882 44.4992C64.424 44.416 64.537 44.304 64.6181 44.1723C64.6992 44.0406 64.7461 43.8929 64.7551 43.7411V42.3814C64.7551 42.103 64.5457 41.9891 64.2882 42.1296Z" fill="black"/>
<path opacity="0.4" d="M64.2882 41.6233L64.1269 41.5358C63.9819 41.468 63.8221 41.4326 63.66 41.4326C63.4979 41.4326 63.338 41.468 63.193 41.5358L24.7724 62.3143C24.6376 62.3953 24.5274 62.5077 24.4526 62.6404L25.545 63.2314C25.624 63.1008 25.7345 62.9892 25.8676 62.9054L64.2882 42.1296C64.5457 41.9891 64.7551 42.1031 64.7551 42.3947C64.7483 42.2406 64.7024 42.0902 64.6212 41.9561C64.54 41.822 64.4259 41.7079 64.2882 41.6233Z" fill="black"/>
<path opacity="0.6" d="M25.4006 63.6635C25.4074 63.5113 25.4541 63.3629 25.5365 63.2315L24.4526 62.6404C24.4171 62.6967 24.3877 62.7562 24.3649 62.818C24.332 62.903 24.3147 62.9926 24.314 63.083V64.4428C24.3207 64.5987 24.3704 64.7503 24.4583 64.8828C24.5353 65.012 24.6464 65.1206 24.7809 65.1983L24.8431 65.2327L24.9422 65.2857C24.9653 65.299 24.99 65.3097 25.0158 65.3175H25.0356L25.1007 65.3361L25.1403 65.3493L25.2054 65.3626H25.2535H25.3186H25.4827H25.5591H25.5761C25.642 65.3538 25.7066 65.3378 25.7685 65.3149C25.7465 65.3219 25.7237 65.3263 25.7006 65.3281C25.6763 65.3322 25.6513 65.3322 25.627 65.3281H25.6044L25.5591 65.3122H25.5421C25.5277 65.3031 25.5144 65.2924 25.5025 65.2804V65.2672C25.4905 65.2532 25.4801 65.2381 25.4714 65.2221V65.2089C25.4621 65.1846 25.4546 65.1598 25.4487 65.1346C25.4457 65.1029 25.4457 65.071 25.4487 65.0392L25.4006 63.6635Z" fill="black"/>
<path d="M34.1619 71.9386V72.1109C34.1702 72.2629 34.2168 72.4108 34.298 72.5426C34.3791 72.6743 34.4925 72.7862 34.6288 72.869L35.8881 73.5502C36.033 73.6181 36.1929 73.6535 36.355 73.6535C36.5171 73.6535 36.6769 73.6181 36.8219 73.5502L75.2397 52.7717C75.3762 52.6891 75.4896 52.5773 75.5708 52.4455C75.652 52.3137 75.6986 52.1656 75.7066 52.0137V51.852C75.6986 51.7003 75.652 51.5527 75.5708 51.4213C75.4896 51.2899 75.3761 51.1786 75.2397 51.0965L73.9748 50.4021C73.8298 50.3342 73.67 50.2988 73.5079 50.2988C73.3458 50.2988 73.1859 50.3342 73.0409 50.4021L34.6401 71.1805C34.5017 71.2621 34.3862 71.3735 34.303 71.5053C34.2198 71.6372 34.1714 71.7857 34.1619 71.9386Z" fill="#2E764F"/>
<path opacity="0.4" d="M36.8217 72.3654L75.2395 51.5869C75.2962 51.5695 75.3455 51.5357 75.3804 51.4905C75.4154 51.4453 75.4342 51.3909 75.4342 51.3351C75.4342 51.2793 75.4154 51.2249 75.3804 51.1797C75.3455 51.1344 75.2962 51.1007 75.2395 51.0833L73.9746 50.4021C73.8296 50.3342 73.6698 50.2988 73.5077 50.2988C73.3456 50.2988 73.1857 50.3342 73.0408 50.4021L34.6399 71.1805C34.5833 71.198 34.534 71.2317 34.4991 71.2769C34.4641 71.3221 34.4453 71.3765 34.4453 71.4323C34.4453 71.4882 34.4641 71.5426 34.4991 71.5878C34.534 71.633 34.5833 71.6667 34.6399 71.6842L35.8992 72.3654C36.0427 72.4316 36.2005 72.466 36.3605 72.466C36.5204 72.466 36.6782 72.4316 36.8217 72.3654Z" fill="black"/>
<path opacity="0.55" d="M75.2877 51.1099C75.4971 51.2503 75.4801 51.4571 75.2424 51.587L36.8218 72.3655C36.6769 72.4362 36.5154 72.4717 36.3521 72.4688V73.6537C36.5154 73.6566 36.6769 73.621 36.8218 73.5503L75.2424 52.7718C75.3779 52.6883 75.4907 52.5762 75.5718 52.4446C75.6528 52.313 75.6999 52.1654 75.7094 52.0137V51.852C75.7028 51.7067 75.6615 51.5645 75.5886 51.4361C75.5156 51.3076 75.4128 51.1962 75.2877 51.1099Z" fill="black"/>
<path opacity="0.6" d="M35.8851 72.3655L34.64 71.6843C34.4165 71.5624 34.3882 71.3742 34.5551 71.2363C34.4426 71.322 34.3505 71.4287 34.2847 71.5497C34.2189 71.6706 34.1809 71.8032 34.1731 71.9387V72.111C34.1865 72.3433 34.2866 72.5638 34.4561 72.7339C34.5097 72.7864 34.5706 72.8319 34.6372 72.8691L35.8936 73.5503C36.0376 73.6208 36.1981 73.6563 36.3606 73.6537V72.4689C36.1953 72.4728 36.0317 72.4372 35.8851 72.3655Z" fill="black"/>
<path d="M30.3303 69.8766V70.0489C30.3386 70.2008 30.3853 70.3488 30.4664 70.4806C30.5476 70.6123 30.661 70.7242 30.7972 70.807L32.0537 71.4882C32.1987 71.5561 32.3585 71.5914 32.5206 71.5914C32.6827 71.5914 32.8426 71.5561 32.9875 71.4882L71.4082 50.7097C71.544 50.6265 71.657 50.5145 71.7381 50.3828C71.8192 50.2511 71.8661 50.1034 71.8751 49.9516V49.7767C71.8664 49.6252 71.8195 49.4778 71.7384 49.3465C71.6572 49.2152 71.5441 49.1038 71.4082 49.0213L70.1517 48.34C70.0068 48.2722 69.8469 48.2368 69.6848 48.2368C69.5227 48.2368 69.3629 48.2722 69.2179 48.34L30.7972 69.1079C30.6595 69.1917 30.5452 69.3053 30.4639 69.439C30.3827 69.5728 30.3369 69.7228 30.3303 69.8766Z" fill="#2E764F"/>
<path opacity="0.4" d="M32.9872 70.2929L71.4078 49.5144C71.4645 49.497 71.5138 49.4632 71.5487 49.418C71.5837 49.3728 71.6025 49.3184 71.6025 49.2626C71.6025 49.2068 71.5837 49.1524 71.5487 49.1071C71.5138 49.0619 71.4645 49.0282 71.4078 49.0108L70.1514 48.3296C70.0064 48.2617 69.8466 48.2263 69.6845 48.2263C69.5224 48.2263 69.3625 48.2617 69.2176 48.3296L30.7969 69.108C30.7403 69.1255 30.691 69.1592 30.6561 69.2044C30.6211 69.2496 30.6023 69.304 30.6023 69.3598C30.6023 69.4157 30.6211 69.4701 30.6561 69.5153C30.691 69.5605 30.7403 69.5942 30.7969 69.6117L32.0534 70.2929C32.1983 70.3608 32.3582 70.3961 32.5203 70.3961C32.6824 70.3961 32.8422 70.3608 32.9872 70.2929Z" fill="black"/>
<path opacity="0.55" d="M71.4562 49.0371C71.6628 49.1776 71.6486 49.3843 71.4081 49.5142L32.9874 70.2927C32.8434 70.3631 32.6829 70.3986 32.5205 70.3961V71.5809C32.6829 71.5835 32.8434 71.548 32.9874 71.4775L71.4081 50.6991C71.544 50.616 71.6572 50.504 71.7383 50.3723C71.8194 50.2406 71.8662 50.0928 71.875 49.941V49.766C71.8663 49.6232 71.8243 49.484 71.752 49.358C71.6796 49.2321 71.5786 49.1225 71.4562 49.0371Z" fill="black"/>
<path opacity="0.6" d="M32.0537 70.2928L30.7972 69.6115C30.5709 69.4896 30.5426 69.3014 30.7124 69.1636C30.5996 69.249 30.5073 69.3557 30.4415 69.4767C30.3757 69.5977 30.3378 69.7304 30.3303 69.866V70.0383C30.3432 70.2707 30.4435 70.4913 30.6133 70.6612C30.6679 70.7137 30.7298 70.7592 30.7972 70.7964L32.0537 71.4776C32.1974 71.5487 32.3581 71.5842 32.5206 71.581V70.4067C32.3571 70.4067 32.1964 70.3675 32.0537 70.2928Z" fill="black"/>
<path d="M26.4956 67.7932V67.9655C26.5039 68.1175 26.5506 68.2654 26.6317 68.3972C26.7129 68.5289 26.8263 68.6408 26.9625 68.7236L28.219 69.4048C28.364 69.4727 28.5238 69.508 28.6859 69.508C28.848 69.508 29.0078 69.4727 29.1528 69.4048L67.5735 48.6263C67.7066 48.543 67.8172 48.4319 67.8968 48.3017C67.9763 48.1716 68.0226 48.0259 68.0319 47.8762V47.7013C68.0229 47.5495 67.976 47.4018 67.8949 47.2701C67.8138 47.1384 67.7008 47.0264 67.565 46.9432L66.3085 46.2646C66.1635 46.1967 66.0037 46.1614 65.8416 46.1614C65.6795 46.1614 65.5197 46.1967 65.3747 46.2646L26.9625 67.0351C26.8263 67.1179 26.7129 67.2298 26.6317 67.3616C26.5506 67.4933 26.5039 67.6413 26.4956 67.7932Z" fill="#2E764F"/>
<path opacity="0.4" d="M26.9627 67.5386L28.2191 68.2199C28.3641 68.2878 28.524 68.3231 28.6861 68.3231C28.8481 68.3231 29.008 68.2878 29.153 68.2199L67.5736 47.4414C67.6313 47.4246 67.6817 47.391 67.7175 47.3455C67.7533 47.2999 67.7727 47.2448 67.7727 47.1883C67.7727 47.1317 67.7533 47.0766 67.7175 47.0311C67.6817 46.9855 67.6313 46.9519 67.5736 46.9351L66.3172 46.2566C66.1722 46.1887 66.0123 46.1533 65.8502 46.1533C65.6882 46.1533 65.5283 46.1887 65.3833 46.2566L26.9627 67.035C26.9061 67.0525 26.8568 67.0862 26.8218 67.1314C26.7869 67.1766 26.7681 67.231 26.7681 67.2868C26.7681 67.3427 26.7869 67.3971 26.8218 67.4423C26.8568 67.4875 26.9061 67.5212 26.9627 67.5386Z" fill="black"/>
<path opacity="0.55" d="M67.6217 46.9644C67.8283 47.1048 67.8141 47.3116 67.5736 47.4415L29.153 68.22C29.0091 68.2907 28.8485 68.3262 28.686 68.3233V69.5082C28.8485 69.5111 29.0091 69.4755 29.153 69.4048L67.5736 48.6263C67.7069 48.5431 67.8176 48.4321 67.8972 48.3019C67.9768 48.1717 68.0229 48.0259 68.032 47.8762V47.7012C68.0256 47.5577 67.9855 47.4173 67.9146 47.2899C67.8437 47.1626 67.7437 47.0514 67.6217 46.9644Z" fill="black"/>
<path opacity="0.6" d="M28.219 68.22L26.9625 67.5388C26.7361 67.4169 26.7107 67.2287 26.8776 67.0908C26.7649 67.1762 26.6726 67.2829 26.6068 67.4039C26.541 67.525 26.5031 67.6576 26.4956 67.7933V67.9655C26.5094 68.197 26.6096 68.4165 26.7786 68.5858C26.833 68.6393 26.8949 68.6857 26.9625 68.7236L28.219 69.4048C28.3628 69.4756 28.5234 69.5111 28.6859 69.5082V68.3234C28.5234 68.3263 28.3628 68.2907 28.219 68.22Z" fill="black"/>
<path d="M30.0387 66.216C30.0063 66.2254 29.978 66.2442 29.9579 66.2698C29.9378 66.2953 29.927 66.3261 29.927 66.3579C29.927 66.3896 29.9378 66.4204 29.9579 66.446C29.978 66.4715 30.0063 66.4903 30.0387 66.4997C30.1198 66.5396 30.2101 66.5605 30.3018 66.5605C30.3935 66.5605 30.4838 66.5396 30.565 66.4997C30.5973 66.4903 30.6256 66.4715 30.6457 66.446C30.6658 66.4204 30.6767 66.3896 30.6767 66.3579C30.6767 66.3261 30.6658 66.2953 30.6457 66.2698C30.6256 66.2442 30.5973 66.2254 30.565 66.216C30.4834 66.1774 30.3933 66.1572 30.3018 66.1572C30.2104 66.1572 30.1202 66.1774 30.0387 66.216Z" fill="black"/>
<path d="M33.8816 68.3048C33.8497 68.315 33.8219 68.3342 33.8022 68.3599C33.7826 68.3856 33.772 68.4164 33.772 68.448C33.772 68.4796 33.7826 68.5104 33.8022 68.5361C33.8219 68.5617 33.8497 68.581 33.8816 68.5911C33.9636 68.6302 34.0543 68.6506 34.1462 68.6506C34.2382 68.6506 34.3289 68.6302 34.4108 68.5911C34.4428 68.581 34.4705 68.5617 34.4902 68.5361C34.5099 68.5104 34.5205 68.4796 34.5205 68.448C34.5205 68.4164 34.5099 68.3856 34.4902 68.3599C34.4705 68.3342 34.4428 68.315 34.4108 68.3048C34.3289 68.2657 34.2382 68.2454 34.1462 68.2454C34.0543 68.2454 33.9636 68.2657 33.8816 68.3048Z" fill="black"/>
<path d="M37.7274 70.407C37.695 70.4163 37.6667 70.4351 37.6467 70.4607C37.6266 70.4862 37.6157 70.5171 37.6157 70.5488C37.6157 70.5805 37.6266 70.6113 37.6467 70.6369C37.6667 70.6624 37.695 70.6812 37.7274 70.6906C37.8085 70.7305 37.8989 70.7514 37.9905 70.7514C38.0822 70.7514 38.1725 70.7305 38.2537 70.6906C38.2861 70.6812 38.3143 70.6624 38.3344 70.6369C38.3545 70.6113 38.3654 70.5805 38.3654 70.5488C38.3654 70.5171 38.3545 70.4862 38.3344 70.4607C38.3143 70.4351 38.2861 70.4163 38.2537 70.407C38.1721 70.3683 38.082 70.3481 37.9905 70.3481C37.8991 70.3481 37.809 70.3683 37.7274 70.407Z" fill="black"/>
<path d="M64.9871 47.3249C64.9551 47.335 64.9274 47.3543 64.9077 47.3799C64.888 47.4056 64.8774 47.4364 64.8774 47.468C64.8774 47.4996 64.888 47.5304 64.9077 47.5561C64.9274 47.5818 64.9551 47.601 64.9871 47.6112C65.0683 47.6511 65.1586 47.672 65.2503 47.672C65.342 47.672 65.4323 47.6511 65.5135 47.6112C65.5454 47.601 65.5732 47.5818 65.5929 47.5561C65.6125 47.5304 65.6231 47.4996 65.6231 47.468C65.6231 47.4364 65.6125 47.4056 65.5929 47.3799C65.5732 47.3543 65.5454 47.335 65.5135 47.3249C65.4316 47.287 65.3416 47.2673 65.2503 47.2673C65.159 47.2673 65.0689 47.287 64.9871 47.3249Z" fill="black"/>
<path d="M68.8299 49.4164C68.7979 49.4265 68.7701 49.4458 68.7505 49.4715C68.7308 49.4971 68.7202 49.528 68.7202 49.5596C68.7202 49.5912 68.7308 49.622 68.7505 49.6476C68.7701 49.6733 68.7979 49.6926 68.8299 49.7027C68.9122 49.7406 69.0027 49.7603 69.0945 49.7603C69.1862 49.7603 69.2767 49.7406 69.3591 49.7027C69.391 49.6926 69.4188 49.6733 69.4385 49.6476C69.4581 49.622 69.4687 49.5912 69.4687 49.5596C69.4687 49.528 69.4581 49.4971 69.4385 49.4715C69.4188 49.4458 69.391 49.4265 69.3591 49.4164C69.2771 49.3773 69.1864 49.3569 69.0945 49.3569C69.0025 49.3569 68.9118 49.3773 68.8299 49.4164Z" fill="black"/>
<path d="M72.6756 51.5048C72.6436 51.5149 72.6158 51.5342 72.5962 51.5599C72.5765 51.5856 72.5659 51.6164 72.5659 51.648C72.5659 51.6796 72.5765 51.7104 72.5962 51.7361C72.6158 51.7617 72.6436 51.781 72.6756 51.7911C72.7567 51.831 72.8471 51.8519 72.9387 51.8519C73.0304 51.8519 73.1208 51.831 73.2019 51.7911C73.2339 51.781 73.2617 51.7617 73.2813 51.7361C73.301 51.7104 73.3116 51.6796 73.3116 51.648C73.3116 51.6164 73.301 51.5856 73.2813 51.5599C73.2617 51.5342 73.2339 51.5149 73.2019 51.5048C73.1201 51.467 73.03 51.4473 72.9387 51.4473C72.8475 51.4473 72.7574 51.467 72.6756 51.5048Z" fill="black"/>
<path d="M47.8016 56.8064C47.7696 56.8165 47.7418 56.8358 47.7221 56.8614C47.7025 56.8871 47.6919 56.9179 47.6919 56.9495C47.6919 56.9811 47.7025 57.0119 47.7221 57.0376C47.7418 57.0633 47.7696 57.0825 47.8016 57.0926C47.8835 57.1318 47.9742 57.1521 48.0661 57.1521C48.1581 57.1521 48.2488 57.1318 48.3307 57.0926C48.3627 57.0825 48.3905 57.0633 48.4101 57.0376C48.4298 57.0119 48.4404 56.9811 48.4404 56.9495C48.4404 56.9179 48.4298 56.8871 48.4101 56.8614C48.3905 56.8358 48.3627 56.8165 48.3307 56.8064C48.2484 56.7685 48.1579 56.7488 48.0661 56.7488C47.9744 56.7488 47.8839 56.7685 47.8016 56.8064Z" fill="black"/>
<path d="M51.6473 58.8977C51.6153 58.9078 51.5875 58.927 51.5678 58.9527C51.5482 58.9784 51.5376 59.0092 51.5376 59.0408C51.5376 59.0724 51.5482 59.1032 51.5678 59.1289C51.5875 59.1546 51.6153 59.1738 51.6473 59.184C51.7291 59.2218 51.8192 59.2415 51.9104 59.2415C52.0017 59.2415 52.0918 59.2218 52.1736 59.184C52.2056 59.1738 52.2333 59.1546 52.253 59.1289C52.2727 59.1032 52.2833 59.0724 52.2833 59.0408C52.2833 59.0092 52.2727 58.9784 52.253 58.9527C52.2333 58.927 52.2056 58.9078 52.1736 58.8977C52.092 58.859 52.0019 58.8389 51.9104 58.8389C51.819 58.8389 51.7288 58.859 51.6473 58.8977Z" fill="black"/>
<path d="M55.4903 60.9863C55.4583 60.9964 55.4305 61.0157 55.4109 61.0414C55.3912 61.067 55.3806 61.0978 55.3806 61.1295C55.3806 61.1611 55.3912 61.1919 55.4109 61.2175C55.4305 61.2432 55.4583 61.2625 55.4903 61.2726C55.5722 61.3117 55.6629 61.3321 55.7549 61.3321C55.8468 61.3321 55.9375 61.3117 56.0195 61.2726C56.0514 61.2625 56.0792 61.2432 56.0989 61.2175C56.1185 61.1919 56.1291 61.1611 56.1291 61.1295C56.1291 61.0978 56.1185 61.067 56.0989 61.0414C56.0792 61.0157 56.0514 60.9964 56.0195 60.9863C55.9371 60.9484 55.8466 60.9287 55.7549 60.9287C55.6631 60.9287 55.5726 60.9484 55.4903 60.9863Z" fill="black"/>
<path d="M27.5456 54.5028C27.4577 54.5558 27.3847 54.6278 27.3325 54.7126C27.2803 54.7974 27.2505 54.8927 27.2456 54.9905C27.2456 55.1681 27.3786 55.2556 27.5456 55.1522C27.6328 55.0985 27.7053 55.0264 27.7574 54.9417C27.8095 54.857 27.8397 54.7621 27.8455 54.6645C27.8484 54.4842 27.7097 54.4127 27.5456 54.5028Z" fill="black"/>
<path d="M27.5456 58.6485C27.4579 58.7017 27.385 58.7737 27.3328 58.8585C27.2807 58.9433 27.2508 59.0385 27.2456 59.1362C27.2456 59.3165 27.3786 59.3881 27.5456 59.2979C27.6328 59.2442 27.7053 59.1722 27.7574 59.0875C27.8095 59.0028 27.8397 58.9078 27.8455 58.8102C27.8484 58.63 27.7097 58.5584 27.5456 58.6485Z" fill="black"/>
<path d="M27.5456 62.7943C27.4579 62.8475 27.385 62.9195 27.3328 63.0043C27.2807 63.0891 27.2508 63.1843 27.2456 63.282C27.2456 63.4623 27.3786 63.5338 27.5456 63.4437C27.6329 63.3902 27.7056 63.3181 27.7577 63.2334C27.8098 63.1487 27.8399 63.0536 27.8455 62.956C27.8484 62.7784 27.7097 62.7042 27.5456 62.7943Z" fill="black"/>
<path d="M62.5224 35.6224C62.435 35.6759 62.3623 35.748 62.3102 35.8327C62.2581 35.9174 62.228 36.0125 62.2224 36.1101C62.2224 36.2877 62.3582 36.3619 62.5224 36.2718C62.6103 36.2186 62.6835 36.1467 62.7361 36.0619C62.7887 35.9772 62.8192 35.882 62.8252 35.7841C62.8252 35.6038 62.6893 35.5323 62.5224 35.6224Z" fill="black"/>
<path d="M62.5224 39.7678C62.4352 39.8215 62.3626 39.8936 62.3105 39.9783C62.2584 40.063 62.2283 40.1579 62.2224 40.2555C62.2224 40.4358 62.3582 40.5073 62.5224 40.4172C62.611 40.3635 62.6847 40.2907 62.7374 40.205C62.79 40.1192 62.8201 40.023 62.8252 39.9242C62.8252 39.7492 62.6893 39.6777 62.5224 39.7678Z" fill="black"/>
<path d="M62.5224 43.9134C62.4352 43.9671 62.3626 44.0392 62.3105 44.1239C62.2584 44.2086 62.2283 44.3036 62.2224 44.4012C62.2224 44.5814 62.3582 44.6662 62.5224 44.5629C62.6106 44.5099 62.684 44.4381 62.7367 44.3533C62.7894 44.2685 62.8197 44.1731 62.8252 44.0751C62.8252 43.9002 62.6893 43.8233 62.5224 43.9134Z" fill="black"/>
<path d="M45.3398 45.1012C45.2524 45.1547 45.1797 45.2268 45.1276 45.3115C45.0755 45.3962 45.0454 45.4912 45.0398 45.5889C45.0398 45.7691 45.1728 45.854 45.3398 45.7532C45.4274 45.7 45.5004 45.628 45.5525 45.5432C45.6047 45.4584 45.6345 45.3632 45.6397 45.2655C45.6397 45.0853 45.5067 45.0137 45.3398 45.1012Z" fill="black"/>
<path d="M45.3398 49.2494C45.2521 49.3026 45.1792 49.3746 45.127 49.4594C45.0749 49.5441 45.045 49.6393 45.0398 49.7371C45.0398 49.9147 45.1728 49.9889 45.3398 49.8988C45.4274 49.8456 45.5004 49.7736 45.5525 49.6888C45.6047 49.604 45.6345 49.5088 45.6397 49.411C45.6397 49.2308 45.5067 49.1592 45.3398 49.2494Z" fill="black"/>
<path d="M45.3398 53.3949C45.2521 53.4481 45.1792 53.5201 45.127 53.6049C45.0749 53.6897 45.045 53.7849 45.0398 53.8826C45.0398 54.0628 45.1728 54.1477 45.3398 54.0443C45.4274 53.9911 45.5004 53.9191 45.5525 53.8343C45.6047 53.7495 45.6345 53.6543 45.6397 53.5566C45.6397 53.379 45.5067 53.3048 45.3398 53.3949Z" fill="black"/>
<path d="M42.5635 41.3371C45.4726 41.1515 46.2819 41.9785 48.2006 43.3463C49.5617 44.3164 51.7945 45.8034 51.7945 45.8034C51.7945 45.8034 53.2858 41.2576 53.2518 40.6532C53.2122 39.9269 52.8698 39.6963 52.6859 38.9382C52.5019 38.1802 52.4878 37.658 52.2614 37.3478C52.035 37.0377 52.7113 36.9131 53.0254 37.2922C53.3395 37.6712 53.416 38.2332 53.5914 38.1165C53.7668 37.9999 53.8065 36.7912 53.5688 35.9218C53.3311 35.0524 53.8348 34.7953 54.0498 35.0577C54.1674 35.1975 54.2689 35.3485 54.3526 35.5083C54.5552 35.4314 54.7762 35.4071 54.9923 35.4379C55.2084 35.4687 55.4117 35.5534 55.5808 35.6832C56.1015 36.1471 56.5995 36.8575 56.7127 38.151C56.8259 39.4445 56.209 40.4703 56.0675 41.0482C55.8609 41.907 55.643 46.6145 54.5451 49.1459C54.0442 50.2989 52.9717 50.2857 51.9982 49.7768L45.7895 46.5244C43.9332 45.6788 41.5703 42.6067 42.5635 41.3371Z" fill="#FFA8A7"/>
<path d="M42.9966 41.3158C43.499 41.1972 44.0218 41.1753 44.5335 41.2514C45.0452 41.3275 45.5351 41.5 45.9736 41.7585C47.4875 42.6358 51.687 45.6178 51.687 45.6178C51.687 45.6178 52.4765 43.6086 52.5925 43.2322C52.5925 43.2322 54.1829 44.152 55.7195 43.826C55.7195 43.826 55.4365 47.248 54.8706 48.7801C54.3046 50.3121 53.7103 50.3572 52.5699 50.1054C51.4295 49.8536 45.0652 46.5668 45.0652 46.5668L42.9966 41.3158Z" fill="#2E764F"/>
<path opacity="0.1" d="M42.9966 41.3158C43.499 41.1972 44.0218 41.1753 44.5335 41.2514C45.0452 41.3275 45.5351 41.5 45.9736 41.7585C47.4875 42.6358 51.687 45.6178 51.687 45.6178C51.687 45.6178 52.4765 43.6086 52.5925 43.2322C52.5925 43.2322 54.1829 44.152 55.7195 43.826C55.7195 43.826 55.4365 47.248 54.8706 48.7801C54.3046 50.3121 53.7103 50.3572 52.5699 50.1054C51.4295 49.8536 45.0652 46.5668 45.0652 46.5668L42.9966 41.3158Z" fill="black"/>
<path d="M50.7871 76.9565C50.7871 76.9565 51.5766 79.8722 52.1086 80.7708C52.6799 81.8106 53.3851 82.7809 54.2084 83.66C54.4093 83.8694 54.862 84.2564 55.0262 84.4234C55.0644 84.4566 55.0943 84.4973 55.1139 84.5426C55.1335 84.5879 55.1423 84.6366 55.1396 84.6854C55.1369 84.7342 55.1228 84.7818 55.0983 84.8249C55.0738 84.868 55.0395 84.9056 54.9979 84.935C54.6045 85.3008 52.9123 85.4121 51.9501 84.7627C50.988 84.1133 50.1787 83.0292 49.6014 82.5017C49.3184 82.2366 49.0354 81.9875 48.843 81.8019C48.7494 81.7138 48.6815 81.6046 48.6458 81.4849C48.6101 81.3651 48.6079 81.2388 48.6392 81.118C48.6591 81.0491 48.6789 80.967 48.7015 80.8715C48.9024 80.0127 47.8044 77.8392 47.8044 77.8392C48.6025 76.7683 49.757 76.8001 50.7871 76.9565Z" fill="#FFA8A7"/>
<path d="M48.5884 81.9849C48.5655 82.1308 48.584 82.2798 48.6421 82.4169C48.7355 82.6131 49.3355 82.947 49.6439 83.0928C49.9987 83.2627 50.2877 83.5324 50.4702 83.8642C50.853 84.5019 51.4278 85.02 52.1228 85.3539C53.0639 85.7128 54.0996 85.7942 55.0913 85.5871C56.3251 85.3565 56.41 84.67 56.41 84.67C56.41 84.67 56.4638 84.0259 56.1525 83.9304C55.8412 83.835 48.5884 81.9849 48.5884 81.9849Z" fill="#111B20"/>
<path d="M48.5401 79.9996C48.5477 80.1031 48.543 80.2071 48.5259 80.3097C48.4948 80.6278 48.4665 80.8398 48.4552 81.195C48.4348 81.4661 48.4802 81.738 48.5882 81.9902C48.9617 82.4594 49.8277 82.5972 50.3399 83.236C50.8521 83.8748 51.4718 84.8609 53.0933 85.1339C54.7148 85.4069 55.9429 84.898 56.2344 84.4606C56.5259 84.0233 56.2344 83.6204 55.1902 83.1141C54.0752 82.584 52.7339 81.1102 52.7311 81.1075C52.5981 80.9618 52.4792 80.7948 52.3575 80.6384C52.206 80.4652 52.0838 80.2712 51.9953 80.0632C51.918 79.843 51.8742 79.6136 51.8651 79.382C51.8656 79.3622 51.8597 79.3428 51.8482 79.3263C51.8318 79.3148 51.812 79.3083 51.7916 79.3077C51.1847 79.2542 50.5758 79.3872 50.0569 79.6868C50.0013 79.7134 49.953 79.7515 49.9154 79.7981C49.8896 79.8394 49.8705 79.8841 49.8588 79.9306C49.8248 80.0526 49.788 80.1745 49.7541 80.2964C49.7474 80.3462 49.7292 80.394 49.7009 80.4365C49.6725 80.4791 49.6347 80.5154 49.59 80.5429C49.4711 80.5933 49.3381 80.5138 49.2362 80.4396C49.1344 80.3654 49.0636 80.1904 48.9532 80.1082C48.8361 80.0226 48.6877 79.9836 48.5401 79.9996Z" fill="#455A64"/>
<path d="M52.0322 84.7839C52.0463 84.4319 52.1626 84.0902 52.3685 83.7955C52.5745 83.5008 52.8622 83.2643 53.2009 83.1113C54.4121 82.5043 55.162 82.8674 55.544 83.1113C55.994 83.4029 56.6448 84.0178 56.2685 84.4817C55.8921 84.9456 55.196 85.2265 53.948 85.2636C53.2697 85.3128 52.5938 85.1436 52.0322 84.7839Z" fill="#FAFAFA"/>
<path d="M34.3313 56.1833C34.3313 57.461 34.4671 61.6676 35.8736 63.311C36.7933 64.3712 37.5149 64.8086 39.7278 66.2267C42.1416 67.7826 42.4586 68.0662 43.05 68.4612C43.39 68.6643 43.6834 68.9287 43.9132 69.239C44.143 69.5494 44.3046 69.8995 44.3885 70.2689C44.5951 71.2815 44.7904 72.2808 45.8459 74.3774C46.675 76.0261 47.5976 77.5344 48.0645 78.3693C48.7663 78.4833 50.5179 78.1679 50.9764 77.6112C50.7217 76.3628 49.2785 67.5149 48.6474 66.2134C48.0164 64.912 43.1038 60.9651 43.1038 60.9651C43.1038 60.9651 42.7161 58.5795 43.1038 57.0342L34.3313 56.1833Z" fill="#37474F"/>
<path d="M58.6201 73.2218C58.6201 73.2218 59.4096 76.1242 59.9416 77.0361C60.5127 78.0727 61.2179 79.0395 62.0414 79.9147C62.2395 80.1241 62.6922 80.5111 62.8564 80.678C62.895 80.711 62.9254 80.7517 62.9453 80.797C62.9652 80.8423 62.9741 80.8912 62.9714 80.9401C62.9687 80.989 62.9544 81.0368 62.9296 81.0799C62.9048 81.1231 62.8702 81.1605 62.8281 81.1896C62.4347 81.5554 60.7425 81.6694 59.7803 81.0173C58.8182 80.3653 58.0089 79.2838 57.4344 78.7563C57.1514 78.4913 56.8684 78.2421 56.676 78.0565C56.5817 77.9689 56.5133 77.8597 56.4776 77.7398C56.4419 77.62 56.44 77.4934 56.4723 77.3727L56.5317 77.1262C56.7354 76.2674 55.6375 74.0938 55.6375 74.0938C56.4298 73.023 57.59 73.0574 58.6201 73.2218Z" fill="#FFA8A7"/>
<path d="M56.4297 78.25C56.4085 78.396 56.427 78.5446 56.4834 78.6821C56.5768 78.8782 57.1796 79.2122 57.4852 79.358C57.8404 79.5282 58.1302 79.7978 58.3143 80.1293C58.6968 80.7671 59.2703 81.2859 59.9641 81.6216C60.9059 81.978 61.941 82.0584 62.9326 81.8522C64.1664 81.6216 64.2542 80.9351 64.2542 80.9351C64.2542 80.9351 64.3051 80.291 63.9938 80.1956C63.6825 80.1002 56.4297 78.25 56.4297 78.25Z" fill="#111B20"/>
<path d="M56.3703 76.2648C56.3827 76.3679 56.3827 76.4719 56.3703 76.5749C56.3364 76.8957 56.3109 77.1051 56.2968 77.4602C56.2763 77.7313 56.3218 78.0032 56.4298 78.2554C56.8033 78.7246 57.6692 78.8651 58.1814 79.5013C58.6936 80.1374 59.3134 81.1261 60.9348 81.3991C62.5563 81.6721 63.7845 81.1659 64.076 80.7259C64.3674 80.2858 64.076 79.8856 63.0346 79.3793C61.9026 78.8492 60.5755 77.3754 60.5755 77.3728C60.4396 77.227 60.3208 77.06 60.1991 76.9036C60.0494 76.7297 59.9282 76.5358 59.8397 76.3284C59.7615 76.1083 59.7167 75.879 59.7067 75.6472C59.7084 75.6273 59.7024 75.6075 59.6897 75.5915C59.6734 75.58 59.6536 75.5735 59.6331 75.573C59.0264 75.5211 58.418 75.6541 57.8984 75.952C57.8437 75.9787 57.7963 76.0168 57.7598 76.0634C57.7327 76.1041 57.7136 76.1489 57.7032 76.1959C57.6664 76.3178 57.6324 76.4397 57.5956 76.5643C57.5589 76.6889 57.5306 76.7684 57.4315 76.8082C57.3325 76.8479 57.1825 76.779 57.0778 76.7048C56.9731 76.6306 56.9052 76.4556 56.7948 76.3761C56.7356 76.3319 56.6675 76.2993 56.5946 76.2802C56.5217 76.261 56.4454 76.2558 56.3703 76.2648Z" fill="#455A64"/>
<path d="M59.8652 81.049C59.8782 80.6971 59.9936 80.3552 60.1992 80.0604C60.4047 79.7656 60.6924 79.5291 61.0311 79.3764C62.2423 78.7694 62.995 79.1326 63.3742 79.3764C63.827 79.668 64.4779 80.283 64.0987 80.7468C63.7195 81.2107 63.0262 81.4917 61.7782 81.542C61.0991 81.5878 60.4237 81.4138 59.8652 81.049Z" fill="#FAFAFA"/>
<path d="M34.9228 57.0582C34.6398 58.6142 42.4219 61.7472 42.4219 61.7472C42.4219 61.7472 43.4887 62.121 45.6677 63.1176C47.4057 63.8834 49.096 64.7409 50.7303 65.6861C51.3443 66.0413 51.8254 66.2401 52.0037 67.1069C52.2103 68.1194 52.1169 68.5674 53.4865 70.953C54.4062 72.5593 55.4334 73.8104 55.9004 74.6453C56.6022 74.7593 58.3538 74.4439 58.8123 73.8872C58.5604 72.6388 57.1144 63.7909 56.4833 62.4894C55.8523 61.188 46.3214 56.0483 46.3214 56.0483L34.9228 57.0582Z" fill="#37474F"/>
<path d="M45.7157 63.1413L43.8027 60.7186C43.8027 60.7186 45.877 59.547 46.3128 57.4609C46.3098 58.0895 46.1588 58.7096 45.8707 59.2773C45.5826 59.8449 45.1645 60.3461 44.646 60.7451L45.7157 63.1413Z" fill="#111B20"/>
<path d="M38.6016 41.2789C36.168 41.7003 34.5465 42.1907 34.0881 42.6042C33.0552 44.5895 34.5918 52.5786 34.5918 52.5786L34.2607 54.3519L33.6777 57.4585C36.3066 59.5392 44.8697 58.9481 46.3044 56.0351C46.3044 56.0351 46.3044 46.8479 46.1092 45.1674C45.9026 43.2351 44.782 41.2126 42.0257 41.0615L38.6016 41.2789Z" fill="#F5F5F5"/>
<path d="M36.8414 56.6234C36.1368 55.6109 36.0151 53.0318 36.0151 53.0318C36.0151 53.0318 36.0887 46.3256 35.8057 44.7273L33.8106 47.2375C33.9758 49.0277 34.2403 50.8087 34.603 52.5732L34.2719 54.3465L33.8842 56.4167L33.689 57.4531C33.7654 57.5141 33.8503 57.5697 33.9352 57.628L34.0229 57.6784C34.0823 57.7155 34.1446 57.7526 34.2097 57.7871L34.32 57.8454L34.5124 57.9382L34.6341 57.9912L34.8464 58.076L34.9652 58.121L35.2482 58.2112L35.3274 58.2377L35.701 58.3384L35.8057 58.3623L36.0887 58.4285L36.2386 58.455C36.3235 58.4736 36.4113 58.4895 36.499 58.5027L36.6603 58.5293L36.9291 58.5664L37.0904 58.5876C37.1895 58.6008 37.2913 58.6088 37.3904 58.6194L37.529 58.6326C37.6762 58.6459 37.812 58.6565 37.9733 58.6644H38.0356C38.1629 58.6644 38.2903 58.6777 38.4204 58.6803H39.0656H39.3486H39.5382L39.8212 58.6644H39.9995L40.3447 58.6379H40.4608C40.6107 58.6379 40.7607 58.6061 40.9107 58.5876L41.0692 58.5664L41.3663 58.5266L41.5502 58.4948L41.8134 58.4497L42.003 58.4126L42.2577 58.3596L42.4416 58.3198L42.7076 58.2536L42.8661 58.2138C42.9991 58.1794 43.1321 58.1396 43.2623 58.0998L43.3783 58.0627L43.6613 57.97L43.8169 57.9116L44.0377 57.8268L44.1961 57.7606L44.3999 57.6704L44.547 57.6015L44.7451 57.4981L44.8753 57.4292C44.9574 57.3842 45.0338 57.3365 45.1073 57.2887L45.1809 57.2463C41.3125 58.4206 37.5432 57.6439 36.8414 56.6234Z" fill="#EBEBEB"/>
<path d="M38.2339 34.5382C38.2149 35.4278 38.5739 36.288 39.2319 36.9297C39.89 37.5714 40.7931 37.9421 41.7429 37.9602C43.6785 37.9602 44.8274 36.3857 45.249 34.5382C46.0244 31.1586 43.6785 31.1162 41.7429 31.1162C40.7931 31.1343 39.89 31.505 39.2319 32.1467C38.5739 32.7884 38.2149 33.6486 38.2339 34.5382Z" fill="#111B20"/>
<path d="M36.4453 35.9219C36.4453 35.9219 36.983 38.3896 37.198 38.7952C37.3364 39.0461 37.5741 39.2364 37.8602 39.3253L37.8234 37.5891L36.4453 35.9219Z" fill="#111B20"/>
<path d="M37.1189 32.3911C37.1189 32.3911 36.7341 32.3009 36.3238 32.9C35.9729 33.4142 35.8936 34.5672 36.4454 35.9217L37.4585 36.0357L37.1189 32.3911Z" fill="#111B20"/>
<path d="M36.748 32.8894L35.5057 32.9106C35.4953 32.8347 35.5022 32.7575 35.5257 32.6842C35.5493 32.6109 35.589 32.543 35.6424 32.485C35.6958 32.427 35.7616 32.3802 35.8355 32.3476C35.9095 32.315 35.9899 32.2973 36.0716 32.2957C36.2429 32.2984 36.407 32.3607 36.532 32.4704C36.657 32.5801 36.7339 32.7295 36.748 32.8894Z" fill="#111B20"/>
<path d="M36.5954 32.6139L35.6729 31.7843C35.7264 31.7259 35.7922 31.6785 35.8661 31.645C35.9401 31.6116 36.0206 31.5928 36.1027 31.5898C36.1847 31.5868 36.2666 31.5997 36.3431 31.6277C36.4196 31.6557 36.4891 31.6982 36.5473 31.7524C36.6694 31.8641 36.7421 32.0148 36.751 32.1744C36.7599 32.334 36.7044 32.4909 36.5954 32.6139Z" fill="#111B20"/>
<path d="M37.7527 36.0386C37.5489 36.1552 37.2603 35.7735 37.0084 35.5085C36.7566 35.2434 35.9727 35.0101 35.5652 35.8504C35.1577 36.6907 35.8482 37.5177 36.4368 37.7907C37.481 38.2784 37.8149 37.568 37.8149 37.568L37.8998 41.4751C38.4205 42.8269 42.3653 43.0893 41.5107 41.3717V40.1895C42.0042 40.2664 42.5054 40.2913 43.0048 40.2637C43.8226 40.1392 44.3348 39.511 44.5839 38.6495C44.9801 37.2659 45.1329 36.1473 44.7933 33.4251C44.4254 30.4404 40.8655 30.4086 38.944 31.5882C37.0226 32.7677 37.7527 36.0386 37.7527 36.0386Z" fill="#FFA8A7"/>
<path d="M42.1984 32.9636C41.3494 32.8841 40.5005 32.7224 39.6515 32.6641C39.4684 32.6428 39.2828 32.6509 39.1026 32.688C38.4489 32.8523 38.5366 33.5627 38.4291 34.061C38.2508 34.9145 38.1036 36.3644 37.7584 36.3697C37.6565 36.3697 37.2688 35.7442 37.0141 35.5189C36.8763 35.3251 36.7979 35.0995 36.7878 34.8668C36.7227 34.5116 36.6887 34.1511 36.6604 33.8066C36.6349 33.5044 36.6038 33.1969 36.6038 32.8921C36.5881 32.5491 36.6166 32.2055 36.6887 31.8689C36.7709 31.5823 36.9274 31.3192 37.1443 31.1029L37.2094 31.0366C37.6366 30.6184 38.1549 30.2911 38.729 30.0771C39.5556 29.7851 40.423 29.6065 41.3042 29.547C42.1834 29.4893 43.0589 29.3903 43.9274 29.2501C43.9774 29.237 44.0303 29.237 44.0802 29.2501C44.1148 29.2684 44.144 29.2944 44.1653 29.3259C44.1865 29.3573 44.1991 29.3932 44.2019 29.4303C44.2376 29.6191 44.2153 29.8135 44.1376 29.9908C44.06 30.1682 43.9302 30.3213 43.7633 30.4323C44.3491 30.4747 45.0254 30.1884 45.5914 30.0453C45.6821 30.0108 45.7836 30.0108 45.8743 30.0453C45.9293 30.0845 45.969 30.1394 45.9875 30.2017C46.0277 30.3455 46.0325 30.4959 46.0017 30.6417C45.9481 31.0778 45.7746 31.4934 45.498 31.8477C45.0599 32.3814 44.4413 32.7599 43.7435 32.9212C43.2338 33.0089 42.7127 33.0232 42.1984 32.9636Z" fill="#111B20"/>
<path d="M41.5166 40.1894C41.5166 40.1894 39.6942 39.8316 39.0575 39.5003C38.6791 39.3056 38.3716 39.0092 38.1746 38.6494C38.2712 39.0105 38.4413 39.3507 38.6754 39.6514C39.1424 40.2345 41.5053 40.6613 41.5053 40.6613L41.5166 40.1894Z" fill="#F28F8F"/>
<path d="M41.0779 35.5933C41.0718 35.6594 41.0454 35.7224 41.0018 35.7746C40.9582 35.8269 40.8993 35.8662 40.8323 35.8876C40.7653 35.9091 40.6931 35.9119 40.6244 35.8955C40.5558 35.8792 40.4937 35.8446 40.4457 35.7958C40.3977 35.747 40.3659 35.6862 40.3542 35.6208C40.3424 35.5554 40.3513 35.4882 40.3796 35.4274C40.4079 35.3666 40.4545 35.3148 40.5136 35.2784C40.5728 35.2419 40.642 35.2224 40.7128 35.2222C40.7629 35.2239 40.8121 35.2348 40.8576 35.2545C40.9031 35.2741 40.944 35.3019 40.9779 35.3364C41.0119 35.3709 41.0382 35.4114 41.0553 35.4555C41.0725 35.4996 41.0802 35.5464 41.0779 35.5933Z" fill="#111B20"/>
<path d="M40.4921 34.1169L39.711 34.5383C39.6547 34.4343 39.6421 34.3142 39.6756 34.2018C39.7091 34.0895 39.7864 33.993 39.8921 33.9313C39.944 33.9044 40.0013 33.8878 40.0604 33.8826C40.1195 33.8774 40.1791 33.8837 40.2354 33.9012C40.2918 33.9186 40.3437 33.9468 40.3878 33.9839C40.432 34.021 40.4675 34.0663 40.4921 34.1169Z" fill="#111B20"/>
<path d="M41.3493 38.053L42.1841 38.3578C42.1673 38.4111 42.1389 38.4606 42.1008 38.5032C42.0627 38.5458 42.0157 38.5806 41.9626 38.6054C41.9095 38.6303 41.8516 38.6447 41.7923 38.6477C41.7331 38.6507 41.6738 38.6422 41.6182 38.6229C41.5054 38.5766 41.4153 38.4924 41.3655 38.3869C41.3157 38.2814 41.31 38.1623 41.3493 38.053Z" fill="#F28F8F"/>
<path d="M44.4284 34.4322L43.7153 33.902C43.7474 33.8554 43.7896 33.8157 43.8392 33.7854C43.8888 33.7551 43.9446 33.7349 44.0031 33.7261C44.0616 33.7174 44.1213 33.7203 44.1785 33.7346C44.2357 33.7489 44.2891 33.7744 44.3351 33.8093C44.4286 33.8848 44.4897 33.9897 44.5069 34.1043C44.524 34.2189 44.4962 34.3354 44.4284 34.4322Z" fill="#111B20"/>
<path d="M44.114 35.4922C44.108 35.5583 44.0815 35.6213 44.0379 35.6736C43.9943 35.7258 43.9355 35.7651 43.8684 35.7866C43.8014 35.808 43.7292 35.8108 43.6606 35.7945C43.5919 35.7782 43.5298 35.7435 43.4818 35.6947C43.4339 35.6459 43.4021 35.5851 43.3903 35.5197C43.3786 35.4543 43.3874 35.3871 43.4157 35.3263C43.444 35.2655 43.4906 35.2137 43.5498 35.1773C43.6089 35.1409 43.6782 35.1213 43.749 35.1211C43.799 35.1228 43.8482 35.1338 43.8937 35.1534C43.9392 35.173 43.9801 35.2009 44.0141 35.2354C44.048 35.2699 44.0743 35.3103 44.0915 35.3544C44.1086 35.3985 44.1163 35.4453 44.114 35.4922Z" fill="#111B20"/>
<path d="M42.1587 35.2061L42.2011 37.3663L43.5114 37.0854L42.1587 35.2061Z" fill="#F28F8F"/>
<path d="M35.2057 42.0737C32.9787 42.4342 32.0194 43.0121 31.4562 45.3181C31.1364 46.6249 29.781 51.6797 29.6508 53.2913C29.5546 54.4655 32.1637 60.342 33.7908 62.5474C35.2312 64.5009 35.8991 64.986 36.9885 65.198C38.078 65.4101 39.8495 64.5115 39.292 63.8064C38.7345 63.1014 37.28 62.118 37.2574 62.0544C37.2347 61.9907 38.129 62.3777 38.6864 62.4334C39.2439 62.4891 39.5127 62.3221 39.5495 62.0544C39.5863 61.7866 39.3175 61.8317 38.7826 61.6515C38.2478 61.4712 37.4498 60.7237 36.8923 60.4931C36.2417 60.2682 35.6999 59.8304 35.367 59.2606C34.9794 58.5714 33.5559 53.0315 33.5559 53.0315L35.1435 47.8363C35.1435 47.8363 36.6207 44.1386 35.2057 42.0737Z" fill="#FFA8A7"/>
<path d="M35.4466 41.997C35.4466 41.997 32.928 41.9334 32.0253 43.3224C31.1226 44.7113 29.3002 52.8939 29.4162 53.5035C29.5322 54.1132 31.6178 58.6882 31.6178 58.6882C32.5121 57.994 33.6063 57.5641 34.7617 57.453L33.6892 53.0317L35.7578 46.4051C35.7578 46.4051 36.5049 43.7226 35.4466 41.997Z" fill="#2E764F"/>
<path opacity="0.1" d="M35.4466 41.997C35.4466 41.997 32.928 41.9334 32.0253 43.3224C31.1226 44.7113 29.3002 52.8939 29.4162 53.5035C29.5322 54.1132 31.6178 58.6882 31.6178 58.6882C32.5121 57.994 33.6063 57.5641 34.7617 57.453L33.6892 53.0317L35.7578 46.4051C35.7578 46.4051 36.5049 43.7226 35.4466 41.997Z" fill="black"/>
</svg>
